  0
SECTION
  2
HEADER
  9
$ACADVER
  1
AC1015
  9
$ACADMAINTVER
 70
     6
  9
$DWGCODEPAGE
  3
ANSI_1252
  9
$INSBASE
 10
0.0
 20
0.0
 30
0.0
  9
$EXTMIN
 10
-44.2122127496
 20
-44.2122127496
 30
0.0
  9
$EXTMAX
 10
44.2122127495
 20
44.2122127496
 30
0.0
  9
$LIMMIN
 10
0.0
 20
0.0
  9
$LIMMAX
 10
420.0
 20
297.0
  9
$ORTHOMODE
 70
     0
  9
$REGENMODE
 70
     1
  9
$FILLMODE
 70
     1
  9
$QTEXTMODE
 70
     0
  9
$MIRRTEXT
 70
     1
  9
$LTSCALE
 40
1.0
  9
$ATTMODE
 70
     1
  9
$TEXTSIZE
 40
3.175
  9
$TRACEWID
 40
1.0
  9
$TEXTSTYLE
  7
Standard
  9
$CLAYER
  8
0
  9
$CELTYPE
  6
ByLayer
  9
$CECOLOR
 62
   256
  9
$CELTSCALE
 40
1.0
  9
$DISPSILH
 70
     0
  9
$DIMSCALE
 40
1.0
  9
$DIMASZ
 40
3.302
  9
$DIMEXO
 40
1.27
  9
$DIMDLI
 40
3.75
  9
$DIMRND
 40
0.0
  9
$DIMDLE
 40
0.0
  9
$DIMEXE
 40
3.175
  9
$DIMTP
 40
0.0
  9
$DIMTM
 40
0.0
  9
$DIMTXT
 40
3.175
  9
$DIMCEN
 40
2.5
  9
$DIMTSZ
 40
0.0
  9
$DIMTOL
 70
     0
  9
$DIMLIM
 70
     0
  9
$DIMTIH
 70
     1
  9
$DIMTOH
 70
     1
  9
$DIMSE1
 70
     0
  9
$DIMSE2
 70
     0
  9
$DIMTAD
 70
     0
  9
$DIMZIN
 70
     1
  9
$DIMBLK
  1

  9
$DIMASO
 70
     1
  9
$DIMSHO
 70
     1
  9
$DIMPOST
  1

  9
$DIMAPOST
  1

  9
$DIMALT
 70
     0
  9
$DIMALTD
 70
     3
  9
$DIMALTF
 40
0.0393700787
  9
$DIMLFAC
 40
1.0
  9
$DIMTOFL
 70
     1
  9
$DIMTVP
 40
0.0
  9
$DIMTIX
 70
     0
  9
$DIMSOXD
 70
     0
  9
$DIMSAH
 70
     0
  9
$DIMBLK1
  1

  9
$DIMBLK2
  1

  9
$DIMSTYLE
  2
ISO-25
  9
$DIMCLRD
 70
     0
  9
$DIMCLRE
 70
     0
  9
$DIMCLRT
 70
     0
  9
$DIMTFAC
 40
1.0
  9
$DIMGAP
 40
1.524
  9
$DIMJUST
 70
     0
  9
$DIMSD1
 70
     0
  9
$DIMSD2
 70
     0
  9
$DIMTOLJ
 70
     0
  9
$DIMTZIN
 70
     1
  9
$DIMALTZ
 70
     0
  9
$DIMALTTZ
 70
     0
  9
$DIMUPT
 70
     0
  9
$DIMDEC
 70
     2
  9
$DIMTDEC
 70
     2
  9
$DIMALTU
 70
     2
  9
$DIMALTTD
 70
     3
  9
$DIMTXSTY
  7
Standard
  9
$DIMAUNIT
 70
     0
  9
$DIMADEC
 70
     2
  9
$DIMALTRND
 40
0.0
  9
$DIMAZIN
 70
     0
  9
$DIMDSEP
 70
    44
  9
$DIMATFIT
 70
     3
  9
$DIMFRAC
 70
     0
  9
$DIMLDRBLK
  1

  9
$DIMLUNIT
 70
     2
  9
$DIMLWD
 70
    -2
  9
$DIMLWE
 70
    -2
  9
$DIMTMOVE
 70
     0
  9
$LUNITS
 70
     2
  9
$LUPREC
 70
     2
  9
$SKETCHINC
 40
1.0
  9
$FILLETRAD
 40
10.0
  9
$AUNITS
 70
     0
  9
$AUPREC
 70
     2
  9
$MENU
  1
.
  9
$ELEVATION
 40
0.0
  9
$PELEVATION
 40
0.0
  9
$THICKNESS
 40
0.0
  9
$LIMCHECK
 70
     0
  9
$CHAMFERA
 40
0.0
  9
$CHAMFERB
 40
0.0
  9
$CHAMFERC
 40
0.0
  9
$CHAMFERD
 40
0.0
  9
$SKPOLY
 70
     0
  9
$TDCREATE
 40
2458673.083104942
  9
$TDUCREATE
 40
2458673.374771609
  9
$TDUPDATE
 40
2458673.083118275
  9
$TDUUPDATE
 40
2458673.374784942
  9
$TDINDWG
 40
0.0000000116
  9
$TDUSRTIMER
 40
0.0000000116
  9
$USRTIMER
 70
     1
  9
$ANGBASE
 50
0.0
  9
$ANGDIR
 70
     0
  9
$PDMODE
 70
     0
  9
$PDSIZE
 40
-1.0
  9
$PLINEWID
 40
0.0
  9
$SPLFRAME
 70
     0
  9
$SPLINETYPE
 70
     6
  9
$SPLINESEGS
 70
     8
  9
$HANDSEED
  5
1F9
  9
$SURFTAB1
 70
     6
  9
$SURFTAB2
 70
     6
  9
$SURFTYPE
 70
     6
  9
$SURFU
 70
     6
  9
$SURFV
 70
     6
  9
$UCSBASE
  2

  9
$UCSNAME
  2

  9
$UCSORG
 10
0.0
 20
0.0
 30
0.0
  9
$UCSXDIR
 10
1.0
 20
0.0
 30
0.0
  9
$UCSYDIR
 10
0.0
 20
1.0
 30
0.0
  9
$UCSORTHOREF
  2

  9
$UCSORTHOVIEW
 70
     0
  9
$UCSORGTOP
 10
0.0
 20
0.0
 30
0.0
  9
$UCSORGBOTTOM
 10
0.0
 20
0.0
 30
0.0
  9
$UCSORGLEFT
 10
0.0
 20
0.0
 30
0.0
  9
$UCSORGRIGHT
 10
0.0
 20
0.0
 30
0.0
  9
$UCSORGFRONT
 10
0.0
 20
0.0
 30
0.0
  9
$UCSORGBACK
 10
0.0
 20
0.0
 30
0.0
  9
$PUCSBASE
  2

  9
$PUCSNAME
  2

  9
$PUCSORG
 10
0.0
 20
0.0
 30
0.0
  9
$PUCSXDIR
 10
1.0
 20
0.0
 30
0.0
  9
$PUCSYDIR
 10
0.0
 20
1.0
 30
0.0
  9
$PUCSORTHOREF
  2

  9
$PUCSORTHOVIEW
 70
     0
  9
$PUCSORGTOP
 10
0.0
 20
0.0
 30
0.0
  9
$PUCSORGBOTTOM
 10
0.0
 20
0.0
 30
0.0
  9
$PUCSORGLEFT
 10
0.0
 20
0.0
 30
0.0
  9
$PUCSORGRIGHT
 10
0.0
 20
0.0
 30
0.0
  9
$PUCSORGFRONT
 10
0.0
 20
0.0
 30
0.0
  9
$PUCSORGBACK
 10
0.0
 20
0.0
 30
0.0
  9
$USERI1
 70
     0
  9
$USERI2
 70
     0
  9
$USERI3
 70
     0
  9
$USERI4
 70
     0
  9
$USERI5
 70
     0
  9
$USERR1
 40
0.0
  9
$USERR2
 40
0.0
  9
$USERR3
 40
0.0
  9
$USERR4
 40
0.0
  9
$USERR5
 40
0.0
  9
$WORLDVIEW
 70
     1
  9
$SHADEDGE
 70
     3
  9
$SHADEDIF
 70
    70
  9
$TILEMODE
 70
     1
  9
$MAXACTVP
 70
    64
  9
$PINSBASE
 10
0.0
 20
0.0
 30
0.0
  9
$PLIMCHECK
 70
     0
  9
$PEXTMIN
 10
1.0000000000E+20
 20
1.0000000000E+20
 30
1.0000000000E+20
  9
$PEXTMAX
 10
-1.0000000000E+20
 20
-1.0000000000E+20
 30
-1.0000000000E+20
  9
$PLIMMIN
 10
0.0
 20
0.0
  9
$PLIMMAX
 10
420.0
 20
297.0
  9
$UNITMODE
 70
     0
  9
$VISRETAIN
 70
     1
  9
$PLINEGEN
 70
     0
  9
$PSLTSCALE
 70
     1
  9
$TREEDEPTH
 70
  3020
  9
$CMLSTYLE
  2
Standard
  9
$CMLJUST
 70
     0
  9
$CMLSCALE
 40
20.0
  9
$PROXYGRAPHICS
 70
     1
  9
$MEASUREMENT
 70
     1
  9
$CELWEIGHT
370
    -1
  9
$ENDCAPS
280
     0
  9
$JOINSTYLE
280
     0
  9
$LWDISPLAY
290
     1
  9
$INSUNITS
 70
     4
  9
$HYPERLINKBASE
  1

  9
$STYLESHEET
  1

  9
$XEDIT
290
     1
  9
$CEPSNTYPE
380
     0
  9
$PSTYLEMODE
290
     1
  9
$FINGERPRINTGUID
  2
{DF4BFBCE-6CEF-4D6E-B1E5-D3AA9352C6F1}
  9
$VERSIONGUID
  2
{FAEB1C32-E019-11D5-929B-00C0DF256EC4}
  9
$EXTNAMES
290
     1
  9
$PSVPSCALE
 40
0.0
  9
$OLESTARTUP
290
     0
  0
ENDSEC
  0
SECTION
  2
CLASSES
  0
CLASS
  1
ACDBDICTIONARYWDFLT
  2
AcDbDictionaryWithDefault
  3
ObjectDBX Classes
 90
        0
280
     0
281
     0
  0
CLASS
  1
VISUALSTYLE
  2
AcDbVisualStyle
  3
ObjectDBX Classes
 90
     4095
280
     0
281
     0
  0
CLASS
  1
MATERIAL
  2
AcDbMaterial
  3
ObjectDBX Classes
 90
     1153
280
     0
281
     0
  0
CLASS
  1
SCALE
  2
AcDbScale
  3
ObjectDBX Classes
 90
     1153
280
     0
281
     0
  0
CLASS
  1
TABLESTYLE
  2
AcDbTableStyle
  3
ObjectDBX Classes
 90
     4095
280
     0
281
     0
  0
CLASS
  1
MLEADERSTYLE
  2
AcDbMLeaderStyle
  3
ACDB_MLEADERSTYLE_CLASS
 90
     4095
280
     0
281
     0
  0
CLASS
  1
SUN
  2
AcDbSun
  3
SCENEOE
 90
     1153
280
     0
281
     0
  0
CLASS
  1
ACDBPLACEHOLDER
  2
AcDbPlaceHolder
  3
ObjectDBX Classes
 90
        0
280
     0
281
     0
  0
CLASS
  1
LAYOUT
  2
AcDbLayout
  3
ObjectDBX Classes
 90
        0
280
     0
281
     0
  0
ENDSEC
  0
SECTION
  2
TABLES
  0
TABLE
  2
VPORT
  5
8
330
0
100
AcDbSymbolTable
 70
     1
  0
VPORT
  5
29
330
8
100
AcDbSymbolTableRecord
100
AcDbViewportTableRecord
  2
*Active
 70
     0
 10
0.0
 20
0.0
 11
1.0
 21
1.0
 12
0.0
 22
0.0
 13
0.0
 23
0.0
 14
10.0
 24
10.0
 15
10.0
 25
10.0
 16
0.0
 26
0.0
 36
1.0
 17
0.0
 27
0.0
 37
0.0
 40
90.1929140091
 41
1.0
 42
50.0
 43
0.0
 44
0.0
 50
0.0
 51
0.0
 71
     0
 72
   100
 73
     1
 74
     3
 75
     0
 76
     0
 77
     0
 78
     0
281
     0
 65
     1
110
0.0
120
0.0
130
0.0
111
1.0
121
0.0
131
0.0
112
0.0
122
1.0
132
0.0
 79
     0
146
0.0
  0
ENDTAB
  0
TABLE
  2
LTYPE
  5
5
330
0
100
AcDbSymbolTable
 70
     6
  0
LTYPE
  5
14
330
5
100
AcDbSymbolTableRecord
100
AcDbLinetypeTableRecord
  2
ByBlock
 70
     0
  3

 72
    65
 73
     0
 40
0.0
  0
LTYPE
  5
15
330
5
100
AcDbSymbolTableRecord
100
AcDbLinetypeTableRecord
  2
ByLayer
 70
     0
  3

 72
    65
 73
     0
 40
0.0
  0
LTYPE
  5
16
330
5
100
AcDbSymbolTableRecord
100
AcDbLinetypeTableRecord
  2
Continuous
 70
     0
  3
Solid line
 72
    65
 73
     0
 40
0.0
  0
LTYPE
  5
6E
330
5
100
AcDbSymbolTableRecord
100
AcDbLinetypeTableRecord
  2
HIDDEN
 70
     0
  3
Hidden __ __ __ __ __ __ __ __ __ __ __ __ __ __
 72
    65
 73
     2
 40
1.905
 49
1.27
 74
     0
 49
-0.635
 74
     0
  0
LTYPE
  5
6F
330
5
100
AcDbSymbolTableRecord
100
AcDbLinetypeTableRecord
  2
PHANTOM
 70
     0
  3
Phantom ______  __  __  ______  __  __  ______
 72
    65
 73
     6
 40
12.7
 49
6.35
 74
     0
 49
-1.27
 74
     0
 49
1.27
 74
     0
 49
-1.27
 74
     0
 49
1.27
 74
     0
 49
-1.27
 74
     0
  0
LTYPE
  5
70
330
5
100
AcDbSymbolTableRecord
100
AcDbLinetypeTableRecord
  2
CENTER
 70
     0
  3
Center ____ _ ____ _ ____ _ ____ _ ____ _ ____
 72
    65
 73
     4
 40
10.16
 49
6.35
 74
     0
 49
-1.27
 74
     0
 49
1.27
 74
     0
 49
-1.27
 74
     0
  0
LTYPE
  5
71
330
5
100
AcDbSymbolTableRecord
100
AcDbLinetypeTableRecord
  2
CENTERX2
 70
     0
  3
Center (2x) ________  __  ________  __  _____
 72
    65
 73
     4
 40
20.32
 49
12.7
 74
     0
 49
-2.54
 74
     0
 49
2.54
 74
     0
 49
-2.54
 74
     0
  0
LTYPE
  5
72
330
5
100
AcDbSymbolTableRecord
100
AcDbLinetypeTableRecord
  2
DOT2
 70
     0
  3
Dot (.5x) ........................................
 72
    65
 73
     2
 40
0.635
 49
0.0
 74
     0
 49
-0.635
 74
     0
  0
ENDTAB
  0
TABLE
  2
LAYER
  5
2
330
0
100
AcDbSymbolTable
 70
     1
  0
LAYER
  5
10
330
2
100
AcDbSymbolTableRecord
100
AcDbLayerTableRecord
  2
0
 70
     0
 62
     7
  6
Continuous
370
    -3
390
F
  0
ENDTAB
  0
TABLE
  2
STYLE
  5
3
330
0
100
AcDbSymbolTable
 70
     2
  0
STYLE
  5
11
330
3
100
AcDbSymbolTableRecord
100
AcDbTextStyleTableRecord
  2
Standard
 70
     0
 40
0.0
 41
1.0
 50
0.0
 71
     0
 42
3.175
  3
txt
  4

  0
STYLE
  5
1F6
330
3
100
AcDbSymbolTableRecord
100
AcDbTextStyleTableRecord
  2
SLDTEXTSTYLE0
 70
     0
 40
0.0
 41
0.7
 50
0.0
 71
     0
 42
3.175
  3
TXT
  4

  0
ENDTAB
  0
TABLE
  2
VIEW
  5
6
330
0
100
AcDbSymbolTable
 70
     0
  0
ENDTAB
  0
TABLE
  2
UCS
  5
7
330
0
100
AcDbSymbolTable
 70
     0
  0
ENDTAB
  0
TABLE
  2
APPID
  5
9
330
0
100
AcDbSymbolTable
 70
     1
  0
APPID
  5
12
330
9
100
AcDbSymbolTableRecord
100
AcDbRegAppTableRecord
  2
ACAD
 70
     0
  0
ENDTAB
  0
TABLE
  2
DIMSTYLE
  5
A
330
0
100
AcDbSymbolTable
 70
     1
100
AcDbDimStyleTable
  0
DIMSTYLE
105
27
330
A
100
AcDbSymbolTableRecord
100
AcDbDimStyleTableRecord
  2
ISO-25
 70
     0
 41
2.5
 42
0.625
 43
3.75
 44
1.25
 73
     0
 74
     0
 77
     1
 78
     8
140
2.5
141
2.5
143
0.0393700787
147
0.625
171
     3
172
     1
178
     0
271
     2
272
     2
274
     3
278
    44
283
     0
284
     8
340
11
  0
ENDTAB
  0
TABLE
  2
BLOCK_RECORD
  5
1
330
0
100
AcDbSymbolTable
 70
     1
  0
BLOCK_RECORD
  5
1F
330
1
100
AcDbSymbolTableRecord
100
AcDbBlockTableRecord
  2
*Model_Space
340
22
  0
BLOCK_RECORD
  5
1B
330
1
100
AcDbSymbolTableRecord
100
AcDbBlockTableRecord
  2
*Paper_Space
340
1E
  0
BLOCK_RECORD
  5
23
330
1
100
AcDbSymbolTableRecord
100
AcDbBlockTableRecord
  2
*Paper_Space0
340
26
  0
ENDTAB
  0
ENDSEC
  0
SECTION
  2
BLOCKS
  0
BLOCK
  5
20
330
1F
100
AcDbEntity
  8
0
100
AcDbBlockBegin
  2
*Model_Space
 70
     0
 10
0.0
 20
0.0
 30
0.0
  3
*Model_Space
  1

  0
ENDBLK
  5
21
330
1F
100
AcDbEntity
  8
0
100
AcDbBlockEnd
  0
BLOCK
  5
1C
330
1B
100
AcDbEntity
 67
     1
  8
0
100
AcDbBlockBegin
  2
*Paper_Space
 70
     0
 10
0.0
 20
0.0
 30
0.0
  3
*Paper_Space
  1

  0
ENDBLK
  5
1D
330
1B
100
AcDbEntity
 67
     1
  8
0
100
AcDbBlockEnd
  0
BLOCK
  5
24
330
23
100
AcDbEntity
  8
0
100
AcDbBlockBegin
  2
*Paper_Space0
 70
     0
 10
0.0
 20
0.0
 30
0.0
  3
*Paper_Space0
  1

  0
ENDBLK
  5
25
330
23
100
AcDbEntity
  8
0
100
AcDbBlockEnd
  0
ENDSEC
  0
SECTION
  2
ENTITIES
  0
CIRCLE
  5
73
330
1F
100
AcDbEntity
  8
0
  6
Continuous
 62
     7
370
    25
100
AcDbCircle
 10
0.0
 20
9.3
 30
0.0
 40
1.375
  0
ARC
  5
74
330
1F
100
AcDbEntity
  8
0
  6
Continuous
 62
     7
370
    25
100
AcDbCircle
 10
38.8097994219
 20
-11.9050770709
 30
0.0
 40
17.40500000000084
100
AcDbArc
 50
72.7442428669
 51
79.8604311518
  0
ARC
  5
75
330
1F
100
AcDbEntity
  8
0
  6
Continuous
 62
     7
370
    25
100
AcDbCircle
 10
0.0
 20
0.0
 30
0.0
 40
42.19899999999567
100
AcDbArc
 50
7.1167340143
 51
7.8832659858
  0
ARC
  5
76
330
1F
100
AcDbEntity
  8
0
  6
Continuous
 62
     7
370
    25
100
AcDbCircle
 10
34.4061268953
 20
21.5441366337
 30
0.0
 40
17.40499999999999
100
AcDbArc
 50
295.1395688484
 51
302.2557571331
  0
ARC
  5
77
330
1F
100
AcDbEntity
  8
0
  6
Continuous
 62
     7
370
    25
100
AcDbCircle
 10
0.0
 20
0.0
 30
0.0
 40
44.22499999997206
100
AcDbArc
 50
8.8778525999
 51
9.8721474002
  0
ARC
  5
78
330
1F
100
AcDbEntity
  8
0
  6
Continuous
 62
     7
370
    25
100
AcDbCircle
 10
39.5053339567
 20
-9.3413050601
 30
0.0
 40
17.40499999999962
100
AcDbArc
 50
76.4942428681
 51
83.6104311528
  0
ARC
  5
79
330
1F
100
AcDbEntity
  8
0
  6
Continuous
 62
     7
370
    25
100
AcDbCircle
 10
0.0
 20
0.0
 30
0.0
 40
42.19899999999503
100
AcDbArc
 50
10.8667340143
 51
11.6332659857
  0
ARC
  5
7A
330
1F
100
AcDbEntity
  8
0
  6
Continuous
 62
     7
370
    25
100
AcDbCircle
 10
32.9234067839
 20
23.7482773469
 30
0.0
 40
17.40499999999984
100
AcDbArc
 50
298.8895688495
 51
306.0057571344
  0
ARC
  5
7B
330
1F
100
AcDbEntity
  8
0
  6
Continuous
 62
     7
370
    25
100
AcDbCircle
 10
0.0
 20
0.0
 30
0.0
 40
44.22500000002113
100
AcDbArc
 50
12.6278526
 51
13.6221474001
  0
ARC
  5
7C
330
1F
100
AcDbEntity
  8
0
  6
Continuous
 62
     7
370
    25
100
AcDbCircle
 10
40.031700586
 20
-6.7375321468
 30
0.0
 40
17.405
100
AcDbArc
 50
80.2442428671
 51
87.3604311521
  0
ARC
  5
7D
330
1F
100
AcDbEntity
  8
0
  6
Continuous
 62
     7
370
    25
100
AcDbCircle
 10
0.0
 20
0.0
 30
0.0
 40
42.19899999996507
100
AcDbArc
 50
14.6167340143
 51
15.3832659858
  0
ARC
  5
7E
330
1F
100
AcDbEntity
  8
0
  6
Continuous
 62
     7
370
    25
100
AcDbCircle
 10
31.2997035907
 20
25.850724291
 30
0.0
 40
17.40499999999994
100
AcDbArc
 50
302.6395688479
 51
309.7557571329
  0
ARC
  5
7F
330
1F
100
AcDbEntity
  8
0
  6
Continuous
 62
     7
370
    25
100
AcDbCircle
 10
0.0
 20
0.0
 30
0.0
 40
44.22500000000882
100
AcDbArc
 50
16.3778525999
 51
17.3721474001
  0
ARC
  5
80
330
1F
100
AcDbEntity
  8
0
  6
Continuous
 62
     7
370
    25
100
AcDbCircle
 10
40.3866453276
 20
-4.1049080866
 30
0.0
 40
17.40500000000045
100
AcDbArc
 50
83.9942428662
 51
91.1104311513
  0
ARC
  5
81
330
1F
100
AcDbEntity
  8
0
  6
Continuous
 62
     7
370
    25
100
AcDbCircle
 10
0.0
 20
0.0
 30
0.0
 40
42.19899999995391
100
AcDbArc
 50
18.3667340143
 51
19.1332659857
  0
ARC
  5
82
330
1F
100
AcDbEntity
  8
0
  6
Continuous
 62
     7
370
    25
100
AcDbCircle
 10
29.541970261
 20
27.8424744645
 30
0.0
 40
17.40500000000002
100
AcDbArc
 50
306.389568849
 51
313.505757134
  0
ARC
  5
83
330
1F
100
AcDbEntity
  8
0
  6
Continuous
 62
     7
370
    25
100
AcDbCircle
 10
0.0
 20
0.0
 30
0.0
 40
44.22499999999807
100
AcDbArc
 50
20.1278525999
 51
21.1221474001
  0
ARC
  5
84
330
1F
100
AcDbEntity
  8
0
  6
Continuous
 62
     7
370
    25
100
AcDbCircle
 10
40.5686482542
 20
-1.4547061797
 30
0.0
 40
17.40500000000025
100
AcDbArc
 50
87.7442428673
 51
94.8604311521
  0
ARC
  5
85
330
1F
100
AcDbEntity
  8
0
  6
Continuous
 62
     7
370
    25
100
AcDbCircle
 10
0.0
 20
0.0
 30
0.0
 40
42.19900000000325
100
AcDbArc
 50
22.1167340143
 51
22.8832659857
  0
ARC
  5
86
330
1F
100
AcDbEntity
  8
0
  6
Continuous
 62
     7
370
    25
100
AcDbCircle
 10
27.6577336796
 20
29.7149988883
 30
0.0
 40
17.40500000000014
100
AcDbArc
 50
310.1395688485
 51
317.2557571333
  0
ARC
  5
87
330
1F
100
AcDbEntity
  8
0
  6
Continuous
 62
     7
370
    25
100
AcDbCircle
 10
0.0
 20
0.0
 30
0.0
 40
44.22499999999077
100
AcDbArc
 50
23.8778525999
 51
24.8721474002
  0
ARC
  5
88
330
1F
100
AcDbEntity
  8
0
  6
Continuous
 62
     7
370
    25
100
AcDbCircle
 10
40.5769300008
 20
1.2017250024
 30
0.0
 40
17.40500000000099
100
AcDbArc
 50
91.4942428687
 51
98.6104311534
  0
ARC
  5
89
330
1F
100
AcDbEntity
  8
0
  6
Continuous
 62
     7
370
    25
100
AcDbCircle
 10
0.0
 20
0.0
 30
0.0
 40
42.19900000000662
100
AcDbArc
 50
25.8667340143
 51
26.6332659857
  0
ARC
  5
8A
330
1F
100
AcDbEntity
  8
0
  6
Continuous
 62
     7
370
    25
100
AcDbCircle
 10
25.6550624367
 20
31.460279125
 30
0.0
 40
17.40500000000068
100
AcDbArc
 50
313.8895688474
 51
321.0057571322
  0
ARC
  5
8B
330
1F
100
AcDbEntity
  8
0
  6
Continuous
 62
     7
370
    25
100
AcDbCircle
 10
0.0
 20
0.0
 30
0.0
 40
44.22500000000549
100
AcDbArc
 50
27.6278525998
 51
28.6221474002
  0
ARC
  5
8C
330
1F
100
AcDbEntity
  8
0
  6
Continuous
 62
     7
370
    25
100
AcDbCircle
 10
40.4114551036
 20
3.8530102136
 30
0.0
 40
17.40500000000059
100
AcDbArc
 50
95.2442428697
 51
102.3604311544
  0
ARC
  5
8D
330
1F
100
AcDbEntity
  8
0
  6
Continuous
 62
     7
370
    25
100
AcDbCircle
 10
0.0
 20
0.0
 30
0.0
 40
42.19900000000146
100
AcDbArc
 50
29.6167340142
 51
30.3832659857
  0
ARC
  5
8E
330
1F
100
AcDbEntity
  8
0
  6
Continuous
 62
     7
370
    25
100
AcDbCircle
 10
23.5425322769
 20
33.0708416158
 30
0.0
 40
17.40499999999953
100
AcDbArc
 50
317.6395688501
 51
324.755757135
  0
ARC
  5
8F
330
1F
100
AcDbEntity
  8
0
  6
Continuous
 62
     7
370
    25
100
AcDbCircle
 10
0.0
 20
0.0
 30
0.0
 40
44.22499999999928
100
AcDbArc
 50
31.3778526
 51
32.3721474001
  0
ARC
  5
90
330
1F
100
AcDbEntity
  8
0
  6
Continuous
 62
     7
370
    25
100
AcDbCircle
 10
40.0729321505
 20
6.4877962433
 30
0.0
 40
17.405
100
AcDbArc
 50
98.9942428671
 51
106.1104311519
  0
ARC
  5
91
330
1F
100
AcDbEntity
  8
0
  6
Continuous
 62
     7
370
    25
100
AcDbCircle
 10
0.0
 20
0.0
 30
0.0
 40
42.19900000001933
100
AcDbArc
 50
33.3667340143
 51
34.1332659858
  0
ARC
  5
92
330
1F
100
AcDbEntity
  8
0
  6
Continuous
 62
     7
370
    25
100
AcDbCircle
 10
21.3291893807
 20
34.539789687
 30
0.0
 40
17.4049999999996
100
AcDbArc
 50
321.3895688472
 51
328.5057571319
  0
ARC
  5
93
330
1F
100
AcDbEntity
  8
0
  6
Continuous
 62
     7
370
    25
100
AcDbCircle
 10
0.0
 20
0.0
 30
0.0
 40
44.22500000000061
100
AcDbArc
 50
35.1278525999
 51
36.1221474001
  0
ARC
  5
94
330
1F
100
AcDbEntity
  8
0
  6
Continuous
 62
     7
370
    25
100
AcDbCircle
 10
39.5628107506
 20
9.0948005336
 30
0.0
 40
17.40500000000018
100
AcDbArc
 50
102.744242867
 51
109.8604311518
  0
ARC
  5
95
330
1F
100
AcDbEntity
  8
0
  6
Continuous
 62
     7
370
    25
100
AcDbCircle
 10
0.0
 20
0.0
 30
0.0
 40
42.19900000000418
100
AcDbArc
 50
37.1167340143
 51
37.8832659858
  0
ARC
  5
96
330
1F
100
AcDbEntity
  8
0
  6
Continuous
 62
     7
370
    25
100
AcDbCircle
 10
19.0245116206
 20
35.8608330754
 30
0.0
 40
17.40500000000087
100
AcDbArc
 50
325.1395688469
 51
332.2557571317
  0
ARC
  5
97
330
1F
100
AcDbEntity
  8
0
  6
Continuous
 62
     7
370
    25
100
AcDbCircle
 10
0.0
 20
0.0
 30
0.0
 40
44.22500000000917
100
AcDbArc
 50
38.8778525999
 51
39.8721474001
  0
ARC
  5
98
330
1F
100
AcDbEntity
  8
0
  6
Continuous
 62
     7
370
    25
100
AcDbCircle
 10
38.8832753213
 20
11.6628594918
 30
0.0
 40
17.40500000000042
100
AcDbArc
 50
106.4942428672
 51
113.610431152
  0
ARC
  5
99
330
1F
100
AcDbEntity
  8
0
  6
Continuous
 62
     7
370
    25
100
AcDbCircle
 10
0.0
 20
0.0
 30
0.0
 40
42.19900000000492
100
AcDbArc
 50
40.8667340143
 51
41.6332659857
  0
ARC
  5
9A
330
1F
100
AcDbEntity
  8
0
  6
Continuous
 62
     7
370
    25
100
AcDbCircle
 10
16.6383679807
 20
37.0283148708
 30
0.0
 40
17.40499999999921
100
AcDbArc
 50
328.8895688482
 51
336.0057571329
  0
ARC
  5
9B
330
1F
100
AcDbEntity
  8
0
  6
Continuous
 62
     7
370
    25
100
AcDbCircle
 10
0.0
 20
0.0
 30
0.0
 40
44.22499999999117
100
AcDbArc
 50
42.6278525999
 51
43.6221474002
  0
ARC
  5
9C
330
1F
100
AcDbEntity
  8
0
  6
Continuous
 62
     7
370
    25
100
AcDbCircle
 10
38.0372357378
 20
14.1809762952
 30
0.0
 40
17.40500000000082
100
AcDbArc
 50
110.244242868
 51
117.3604311527
  0
ARC
  5
9D
330
1F
100
AcDbEntity
  8
0
  6
Continuous
 62
     7
370
    25
100
AcDbCircle
 10
0.0
 20
0.0
 30
0.0
 40
42.19900000001303
100
AcDbArc
 50
44.6167340143
 51
45.3832659857
  0
ARC
  5
9E
330
1F
100
AcDbEntity
  8
0
  6
Continuous
 62
     7
370
    25
100
AcDbCircle
 10
14.1809762949
 20
38.0372357373
 30
0.0
 40
17.40500000000048
100
AcDbArc
 50
332.639568849
 51
339.7557571339
  0
ARC
  5
9F
330
1F
100
AcDbEntity
  8
0
  6
Continuous
 62
     7
370
    25
100
AcDbCircle
 10
0.0
 20
0.0
 30
0.0
 40
44.22500000002347
100
AcDbArc
 50
46.3778525999
 51
47.3721474001
  0
ARC
  5
A0
330
1F
100
AcDbEntity
  8
0
  6
Continuous
 62
     7
370
    25
100
AcDbCircle
 10
37.0283148709
 20
16.6383679808
 30
0.0
 40
17.40500000000037
100
AcDbArc
 50
113.9942428673
 51
121.1104311521
  0
ARC
  5
A1
330
1F
100
AcDbEntity
  8
0
  6
Continuous
 62
     7
370
    25
100
AcDbCircle
 10
0.0
 20
0.0
 30
0.0
 40
42.1990000000187
100
AcDbArc
 50
48.3667340143
 51
49.1332659857
  0
ARC
  5
A2
330
1F
100
AcDbEntity
  8
0
  6
Continuous
 62
     7
370
    25
100
AcDbCircle
 10
11.6628594919
 20
38.8832753216
 30
0.0
 40
17.40500000000065
100
AcDbArc
 50
336.3895688471
 51
343.5057571318
  0
ARC
  5
A3
330
1F
100
AcDbEntity
  8
0
  6
Continuous
 62
     7
370
    25
100
AcDbCircle
 10
0.0
 20
0.0
 30
0.0
 40
44.22499999998634
100
AcDbArc
 50
50.1278525998
 51
51.1221474001
  0
ARC
  5
A4
330
1F
100
AcDbEntity
  8
0
  6
Continuous
 62
     7
370
    25
100
AcDbCircle
 10
35.8608330749
 20
19.0245116203
 30
0.0
 40
17.40499999999952
100
AcDbArc
 50
117.7442428664
 51
124.8604311513
  0
ARC
  5
A5
330
1F
100
AcDbEntity
  8
0
  6
Continuous
 62
     7
370
    25
100
AcDbCircle
 10
0.0
 20
0.0
 30
0.0
 40
42.19899999998059
100
AcDbArc
 50
52.1167340143
 51
52.8832659858
  0
ARC
  5
A6
330
1F
100
AcDbEntity
  8
0
  6
Continuous
 62
     7
370
    25
100
AcDbCircle
 10
9.0948005336
 20
39.5628107508
 30
0.0
 40
17.40499999999924
100
AcDbArc
 50
340.1395688474
 51
347.2557571324
  0
ARC
  5
A7
330
1F
100
AcDbEntity
  8
0
  6
Continuous
 62
     7
370
    25
100
AcDbCircle
 10
0.0
 20
0.0
 30
0.0
 40
44.22500000002378
100
AcDbArc
 50
53.8778525999
 51
54.8721474001
  0
ARC
  5
A8
330
1F
100
AcDbEntity
  8
0
  6
Continuous
 62
     7
370
    25
100
AcDbCircle
 10
34.5397896866
 20
21.3291893805
 30
0.0
 40
17.40500000000044
100
AcDbArc
 50
121.4942428667
 51
128.6104311516
  0
ARC
  5
A9
330
1F
100
AcDbEntity
  8
0
  6
Continuous
 62
     7
370
    25
100
AcDbCircle
 10
0.0
 20
0.0
 30
0.0
 40
42.19900000002002
100
AcDbArc
 50
55.8667340143
 51
56.6332659857
  0
ARC
  5
AA
330
1F
100
AcDbEntity
  8
0
  6
Continuous
 62
     7
370
    25
100
AcDbCircle
 10
6.4877962434
 20
40.0729321509
 30
0.0
 40
17.40500000000196
100
AcDbArc
 50
343.889568847
 51
351.0057571317
  0
ARC
  5
AB
330
1F
100
AcDbEntity
  8
0
  6
Continuous
 62
     7
370
    25
100
AcDbCircle
 10
0.0
 20
0.0
 30
0.0
 40
44.22500000001592
100
AcDbArc
 50
57.6278525998
 51
58.6221474001
  0
ARC
  5
AC
330
1F
100
AcDbEntity
  8
0
  6
Continuous
 62
     7
370
    25
100
AcDbCircle
 10
33.0708416163
 20
23.5425322774
 30
0.0
 40
17.40499999999869
100
AcDbArc
 50
125.2442428673
 51
132.3604311522
  0
ARC
  5
AD
330
1F
100
AcDbEntity
  8
0
  6
Continuous
 62
     7
370
    25
100
AcDbCircle
 10
0.0
 20
0.0
 30
0.0
 40
42.19899999998215
100
AcDbArc
 50
59.6167340143
 51
60.3832659857
  0
ARC
  5
AE
330
1F
100
AcDbEntity
  8
0
  6
Continuous
 62
     7
370
    25
100
AcDbCircle
 10
3.8530102133
 20
40.4114551022
 30
0.0
 40
17.40500000000014
100
AcDbArc
 50
347.6395688502
 51
354.7557571352
  0
ARC
  5
AF
330
1F
100
AcDbEntity
  8
0
  6
Continuous
 62
     7
370
    25
100
AcDbCircle
 10
0.0
 20
0.0
 30
0.0
 40
44.22500000000589
100
AcDbArc
 50
61.3778526
 51
62.3721474001
  0
ARC
  5
B0
330
1F
100
AcDbEntity
  8
0
  6
Continuous
 62
     7
370
    25
100
AcDbCircle
 10
31.4602791252
 20
25.6550624369
 30
0.0
 40
17.4049999999998
100
AcDbArc
 50
128.9942428689
 51
136.1104311537
  0
ARC
  5
B1
330
1F
100
AcDbEntity
  8
0
  6
Continuous
 62
     7
370
    25
100
AcDbCircle
 10
0.0
 20
0.0
 30
0.0
 40
42.1989999999773
100
AcDbArc
 50
63.3667340142
 51
64.1332659857
  0
ARC
  5
B2
330
1F
100
AcDbEntity
  8
0
  6
Continuous
 62
     7
370
    25
100
AcDbCircle
 10
1.2017250023
 20
40.5769299999
 30
0.0
 40
17.40500000000026
100
AcDbArc
 50
351.3895688493
 51
358.5057571343
  0
ARC
  5
B3
330
1F
100
AcDbEntity
  8
0
  6
Continuous
 62
     7
370
    25
100
AcDbCircle
 10
0.0
 20
0.0
 30
0.0
 40
44.22500000000313
100
AcDbArc
 50
65.1278525999
 51
66.1221474001
  0
ARC
  5
B4
330
1F
100
AcDbEntity
  8
0
  6
Continuous
 62
     7
370
    25
100
AcDbCircle
 10
29.7149988884
 20
27.6577336798
 30
0.0
 40
17.40500000000009
100
AcDbArc
 50
132.7442428674
 51
139.8604311522
  0
ARC
  5
B5
330
1F
100
AcDbEntity
  8
0
  6
Continuous
 62
     7
370
    25
100
AcDbCircle
 10
0.0
 20
0.0
 30
0.0
 40
42.19900000001431
100
AcDbArc
 50
67.1167340143
 51
67.8832659857
  0
ARC
  5
B6
330
1F
100
AcDbEntity
  8
0
  6
Continuous
 62
     7
370
    25
100
AcDbCircle
 10
-1.4547061797
 20
40.5686482539
 30
0.0
 40
17.40500000000028
100
AcDbArc
 50
355.139568849
 51
2.2557571338
  0
ARC
  5
B7
330
1F
100
AcDbEntity
  8
0
  6
Continuous
 62
     7
370
    25
100
AcDbCircle
 10
0.0
 20
0.0
 30
0.0
 40
44.22499999998696
100
AcDbArc
 50
68.8778525999
 51
69.8721474002
  0
ARC
  5
B8
330
1F
100
AcDbEntity
  8
0
  6
Continuous
 62
     7
370
    25
100
AcDbCircle
 10
27.8424744651
 20
29.5419702618
 30
0.0
 40
17.40500000000077
100
AcDbArc
 50
136.4942428694
 51
143.6104311542
  0
ARC
  5
B9
330
1F
100
AcDbEntity
  8
0
  6
Continuous
 62
     7
370
    25
100
AcDbCircle
 10
0.0
 20
0.0
 30
0.0
 40
42.1989999999658
100
AcDbArc
 50
70.8667340142
 51
71.6332659858
  0
ARC
  5
BA
330
1F
100
AcDbEntity
  8
0
  6
Continuous
 62
     7
370
    25
100
AcDbCircle
 10
-4.1049080866
 20
40.3866453284
 30
0.0
 40
17.40500000000008
100
AcDbArc
 50
358.8895688461
 51
6.005757131
  0
ARC
  5
BB
330
1F
100
AcDbEntity
  8
0
  6
Continuous
 62
     7
370
    25
100
AcDbCircle
 10
0.0
 20
0.0
 30
0.0
 40
44.22500000003937
100
AcDbArc
 50
72.6278525999
 51
73.6221474001
  0
ARC
  5
BC
330
1F
100
AcDbEntity
  8
0
  6
Continuous
 62
     7
370
    25
100
AcDbCircle
 10
25.8507242911
 20
31.299703591
 30
0.0
 40
17.40499999999977
100
AcDbArc
 50
140.2442428678
 51
147.3604311527
  0
ARC
  5
BD
330
1F
100
AcDbEntity
  8
0
  6
Continuous
 62
     7
370
    25
100
AcDbCircle
 10
0.0
 20
0.0
 30
0.0
 40
42.19899999999071
100
AcDbArc
 50
74.6167340142
 51
75.3832659857
  0
ARC
  5
BE
330
1F
100
AcDbEntity
  8
0
  6
Continuous
 62
     7
370
    25
100
AcDbCircle
 10
-6.7375321468
 20
40.0317005863
 30
0.0
 40
17.40500000000041
100
AcDbArc
 50
2.6395688471
 51
9.7557571319
  0
ARC
  5
BF
330
1F
100
AcDbEntity
  8
0
  6
Continuous
 62
     7
370
    25
100
AcDbCircle
 10
0.0
 20
0.0
 30
0.0
 40
44.2249999999872
100
AcDbArc
 50
76.3778525998
 51
77.3721474001
  0
ARC
  5
C0
330
1F
100
AcDbEntity
  8
0
  6
Continuous
 62
     7
370
    25
100
AcDbCircle
 10
23.7482773472
 20
32.9234067844
 30
0.0
 40
17.40499999999975
100
AcDbArc
 50
143.9942428677
 51
151.1104311525
  0
ARC
  5
C1
330
1F
100
AcDbEntity
  8
0
  6
Continuous
 62
     7
370
    25
100
AcDbCircle
 10
0.0
 20
0.0
 30
0.0
 40
42.19899999999474
100
AcDbArc
 50
78.3667340143
 51
79.1332659857
  0
ARC
  5
C2
330
1F
100
AcDbEntity
  8
0
  6
Continuous
 62
     7
370
    25
100
AcDbCircle
 10
-9.34130506
 20
39.5053339564
 30
0.0
 40
17.40500000000008
100
AcDbArc
 50
6.3895688482
 51
13.505757133
  0
ARC
  5
C3
330
1F
100
AcDbEntity
  8
0
  6
Continuous
 62
     7
370
    25
100
AcDbCircle
 10
0.0
 20
0.0
 30
0.0
 40
44.22500000000728
100
AcDbArc
 50
80.1278525999
 51
81.1221474002
  0
ARC
  5
C4
330
1F
100
AcDbEntity
  8
0
  6
Continuous
 62
     7
370
    25
100
AcDbCircle
 10
21.544136634
 20
34.4061268959
 30
0.0
 40
17.40500000000007
100
AcDbArc
 50
147.7442428691
 51
154.8604311539
  0
ARC
  5
C5
330
1F
100
AcDbEntity
  8
0
  6
Continuous
 62
     7
370
    25
100
AcDbCircle
 10
0.0
 20
0.0
 30
0.0
 40
42.19899999998426
100
AcDbArc
 50
82.1167340143
 51
82.8832659857
  0
ARC
  5
C6
330
1F
100
AcDbEntity
  8
0
  6
Continuous
 62
     7
370
    25
100
AcDbCircle
 10
-11.9050770709
 20
38.8097994222
 30
0.0
 40
17.40500000000073
100
AcDbArc
 50
10.1395688473
 51
17.255757132
  0
ARC
  5
C7
330
1F
100
AcDbEntity
  8
0
  6
Continuous
 62
     7
370
    25
100
AcDbCircle
 10
0.0
 20
0.0
 30
0.0
 40
44.22499999997834
100
AcDbArc
 50
83.8778525999
 51
84.8721474001
  0
ARC
  5
C8
330
1F
100
AcDbEntity
  8
0
  6
Continuous
 62
     7
370
    25
100
AcDbCircle
 10
19.2477406198
 20
35.7415146892
 30
0.0
 40
17.40499999999953
100
AcDbArc
 50
151.4942428675
 51
158.6104311522
  0
ARC
  5
C9
330
1F
100
AcDbEntity
  8
0
  6
Continuous
 62
     7
370
    25
100
AcDbCircle
 10
0.0
 20
0.0
 30
0.0
 40
42.19899999999774
100
AcDbArc
 50
85.8667340143
 51
86.6332659857
  0
ARC
  5
CA
330
1F
100
AcDbEntity
  8
0
  6
Continuous
 62
     7
370
    25
100
AcDbCircle
 10
-14.417869714
 20
37.948075368
 30
0.0
 40
17.40499999999984
100
AcDbArc
 50
13.8895688484
 51
21.0057571333
  0
ARC
  5
CB
330
1F
100
AcDbEntity
  8
0
  6
Continuous
 62
     7
370
    25
100
AcDbCircle
 10
0.0
 20
0.0
 30
0.0
 40
44.22500000002214
100
AcDbArc
 50
87.6278525999
 51
88.6221474001
  0
ARC
  5
CC
330
1F
100
AcDbEntity
  8
0
  6
Continuous
 62
     7
370
    25
100
AcDbCircle
 10
16.8689228255
 20
36.9238518297
 30
0.0
 40
17.40500000000021
100
AcDbArc
 50
155.2442428669
 51
162.3604311518
  0
ARC
  5
CD
330
1F
100
AcDbEntity
  8
0
  6
Continuous
 62
     7
370
    25
100
AcDbCircle
 10
0.0
 20
0.0
 30
0.0
 40
42.19899999998551
100
AcDbArc
 50
89.6167340143
 51
90.3832659858
  0
ARC
  5
CE
330
1F
100
AcDbEntity
  8
0
  6
Continuous
 62
     7
370
    25
100
AcDbCircle
 10
-16.8689228256
 20
36.9238518297
 30
0.0
 40
17.40500000000021
100
AcDbArc
 50
17.6395688479
 51
24.7557571327
  0
ARC
  5
CF
330
1F
100
AcDbEntity
  8
0
  6
Continuous
 62
     7
370
    25
100
AcDbCircle
 10
0.0
 20
0.0
 30
0.0
 40
44.22499999995836
100
AcDbArc
 50
91.3778525999
 51
92.3721474001
  0
ARC
  5
D0
330
1F
100
AcDbEntity
  8
0
  6
Continuous
 62
     7
370
    25
100
AcDbCircle
 10
14.417869714
 20
37.9480753683
 30
0.0
 40
17.40499999999998
100
AcDbArc
 50
158.9942428677
 51
166.1104311525
  0
ARC
  5
D1
330
1F
100
AcDbEntity
  8
0
  6
Continuous
 62
     7
370
    25
100
AcDbCircle
 10
0.0
 20
0.0
 30
0.0
 40
42.19899999998082
100
AcDbArc
 50
93.3667340143
 51
94.1332659857
  0
ARC
  5
D2
330
1F
100
AcDbEntity
  8
0
  6
Continuous
 62
     7
370
    25
100
AcDbCircle
 10
-19.2477406198
 20
35.7415146891
 30
0.0
 40
17.40499999999961
100
AcDbArc
 50
21.3895688478
 51
28.5057571329
  0
ARC
  5
D3
330
1F
100
AcDbEntity
  8
0
  6
Continuous
 62
     7
370
    25
100
AcDbCircle
 10
0.0
 20
0.0
 30
0.0
 40
44.22500000007162
100
AcDbArc
 50
95.1278525999
 51
96.1221474001
  0
ARC
  5
D4
330
1F
100
AcDbEntity
  8
0
  6
Continuous
 62
     7
370
    25
100
AcDbCircle
 10
11.9050770709
 20
38.8097994221
 30
0.0
 40
17.40500000000082
100
AcDbArc
 50
162.7442428673
 51
169.8604311524
  0
ARC
  5
D5
330
1F
100
AcDbEntity
  8
0
  6
Continuous
 62
     7
370
    25
100
AcDbCircle
 10
0.0
 20
0.0
 30
0.0
 40
42.19899999999566
100
AcDbArc
 50
97.1167340143
 51
97.8832659858
  0
ARC
  5
D6
330
1F
100
AcDbEntity
  8
0
  6
Continuous
 62
     7
370
    25
100
AcDbCircle
 10
-21.5441366337
 20
34.4061268953
 30
0.0
 40
17.40500000000011
100
AcDbArc
 50
25.1395688485
 51
32.2557571332
  0
ARC
  5
D7
330
1F
100
AcDbEntity
  8
0
  6
Continuous
 62
     7
370
    25
100
AcDbCircle
 10
0.0
 20
0.0
 30
0.0
 40
44.2249999999568
100
AcDbArc
 50
98.8778525999
 51
99.8721474002
  0
ARC
  5
D8
330
1F
100
AcDbEntity
  8
0
  6
Continuous
 62
     7
370
    25
100
AcDbCircle
 10
9.34130506
 20
39.5053339566
 30
0.0
 40
17.40500000000021
100
AcDbArc
 50
166.4942428677
 51
173.6104311524
  0
ARC
  5
D9
330
1F
100
AcDbEntity
  8
0
  6
Continuous
 62
     7
370
    25
100
AcDbCircle
 10
0.0
 20
0.0
 30
0.0
 40
42.1989999999798
100
AcDbArc
 50
100.8667340143
 51
101.6332659857
  0
ARC
  5
DA
330
1F
100
AcDbEntity
  8
0
  6
Continuous
 62
     7
370
    25
100
AcDbCircle
 10
-23.7482773469
 20
32.923406784
 30
0.0
 40
17.40499999999998
100
AcDbArc
 50
28.8895688492
 51
36.0057571342
  0
ARC
  5
DB
330
1F
100
AcDbEntity
  8
0
  6
Continuous
 62
     7
370
    25
100
AcDbCircle
 10
0.0
 20
0.0
 30
0.0
 40
44.22500000003388
100
AcDbArc
 50
102.6278526
 51
103.6221474001
  0
ARC
  5
DC
330
1F
100
AcDbEntity
  8
0
  6
Continuous
 62
     7
370
    25
100
AcDbCircle
 10
6.7375321468
 20
40.031700586
 30
0.0
 40
17.40499999999968
100
AcDbArc
 50
170.244242867
 51
177.3604311519
  0
ARC
  5
DD
330
1F
100
AcDbEntity
  8
0
  6
Continuous
 62
     7
370
    25
100
AcDbCircle
 10
0.0
 20
0.0
 30
0.0
 40
42.19899999999678
100
AcDbArc
 50
104.6167340143
 51
105.3832659858
  0
ARC
  5
DE
330
1F
100
AcDbEntity
  8
0
  6
Continuous
 62
     7
370
    25
100
AcDbCircle
 10
-25.850724291
 20
31.2997035909
 30
0.0
 40
17.405
100
AcDbArc
 50
32.6395688477
 51
39.7557571327
  0
ARC
  5
DF
330
1F
100
AcDbEntity
  8
0
  6
Continuous
 62
     7
370
    25
100
AcDbCircle
 10
0.0
 20
0.0
 30
0.0
 40
44.22500000006303
100
AcDbArc
 50
106.3778525999
 51
107.3721474001
  0
ARC
  5
E0
330
1F
100
AcDbEntity
  8
0
  6
Continuous
 62
     7
370
    25
100
AcDbCircle
 10
4.1049080865
 20
40.3866453278
 30
0.0
 40
17.40499999999957
100
AcDbArc
 50
173.9942428666
 51
181.1104311518
  0
ARC
  5
E1
330
1F
100
AcDbEntity
  8
0
  6
Continuous
 62
     7
370
    25
100
AcDbCircle
 10
0.0
 20
0.0
 30
0.0
 40
42.19899999995388
100
AcDbArc
 50
108.3667340143
 51
109.1332659857
  0
ARC
  5
E2
330
1F
100
AcDbEntity
  8
0
  6
Continuous
 62
     7
370
    25
100
AcDbCircle
 10
-27.8424744647
 20
29.5419702612
 30
0.0
 40
17.40499999999942
100
AcDbArc
 50
36.3895688482
 51
43.5057571331
  0
ARC
  5
E3
330
1F
100
AcDbEntity
  8
0
  6
Continuous
 62
     7
370
    25
100
AcDbCircle
 10
0.0
 20
0.0
 30
0.0
 40
44.22499999999508
100
AcDbArc
 50
110.1278525999
 51
111.1221474001
  0
ARC
  5
E4
330
1F
100
AcDbEntity
  8
0
  6
Continuous
 62
     7
370
    25
100
AcDbCircle
 10
1.4547061797
 20
40.5686482555
 30
0.0
 40
17.40499999999942
100
AcDbArc
 50
177.7442428718
 51
184.8604311588
  0
ARC
  5
E5
330
1F
100
AcDbEntity
  8
0
  6
Continuous
 62
     7
370
    25
100
AcDbCircle
 10
0.0
 20
0.0
 30
0.0
 40
42.19899999928984
100
AcDbArc
 50
112.1167340143
 51
112.8832659857
  0
ARC
  5
E6
330
1F
100
AcDbEntity
  8
0
  6
Continuous
 62
     7
370
    25
100
AcDbCircle
 10
-29.7149988881
 20
27.6577336792
 30
0.0
 40
17.40499999999956
100
AcDbArc
 50
40.1395688479
 51
47.2557571329
  0
ARC
  5
E7
330
1F
100
AcDbEntity
  8
0
  6
Continuous
 62
     7
370
    25
100
AcDbCircle
 10
0.0
 20
0.0
 30
0.0
 40
44.22499999933704
100
AcDbArc
 50
113.8778525999
 51
114.8721474002
  0
ARC
  5
E8
330
1F
100
AcDbEntity
  8
0
  6
Continuous
 62
     7
370
    25
100
AcDbCircle
 10
-1.2017250021
 20
40.5769300001
 30
0.0
 40
17.40499999999953
100
AcDbArc
 50
181.4942428684
 51
188.610431153
  0
ARC
  5
E9
330
1F
100
AcDbEntity
  8
0
  6
Continuous
 62
     7
370
    25
100
AcDbCircle
 10
0.0
 20
0.0
 30
0.0
 40
42.19899999938061
100
AcDbArc
 50
115.8667340143
 51
116.6332659857
  0
ARC
  5
EA
330
1F
100
AcDbEntity
  8
0
  6
Continuous
 62
     7
370
    25
100
AcDbCircle
 10
-31.4602791248
 20
25.6550624362
 30
0.0
 40
17.40499999999998
100
AcDbArc
 50
43.8895688472
 51
51.005757132
  0
ARC
  5
EB
330
1F
100
AcDbEntity
  8
0
  6
Continuous
 62
     7
370
    25
100
AcDbCircle
 10
0.0
 20
0.0
 30
0.0
 40
44.22499999940333
100
AcDbArc
 50
117.6278525998
 51
118.6221474002
  0
ARC
  5
EC
330
1F
100
AcDbEntity
  8
0
  6
Continuous
 62
     7
370
    25
100
AcDbCircle
 10
-3.8530102133
 20
40.411455103
 30
0.0
 40
17.40500000000119
100
AcDbArc
 50
185.2442428695
 51
192.3604311541
  0
ARC
  5
ED
330
1F
100
AcDbEntity
  8
0
  6
Continuous
 62
     7
370
    25
100
AcDbCircle
 10
0.0
 20
0.0
 30
0.0
 40
42.19899999942395
100
AcDbArc
 50
119.6167340142
 51
120.3832659857
  0
ARC
  5
EE
330
1F
100
AcDbEntity
  8
0
  6
Continuous
 62
     7
370
    25
100
AcDbCircle
 10
-33.0708416155
 20
23.5425322764
 30
0.0
 40
17.4049999999993
100
AcDbArc
 50
47.6395688501
 51
54.755757135
  0
ARC
  5
EF
330
1F
100
AcDbEntity
  8
0
  6
Continuous
 62
     7
370
    25
100
AcDbCircle
 10
0.0
 20
0.0
 30
0.0
 40
44.22499999941605
100
AcDbArc
 50
121.3778526
 51
122.3721474001
  0
ARC
  5
F0
330
1F
100
AcDbEntity
  8
0
  6
Continuous
 62
     7
370
    25
100
AcDbCircle
 10
-6.487796243
 20
40.07293215
 30
0.0
 40
17.40499999999911
100
AcDbArc
 50
188.994242867
 51
196.1104311517
  0
ARC
  5
F1
330
1F
100
AcDbEntity
  8
0
  6
Continuous
 62
     7
370
    25
100
AcDbCircle
 10
0.0
 20
0.0
 30
0.0
 40
42.19899999945022
100
AcDbArc
 50
123.3667340143
 51
124.1332659858
  0
ARC
  5
F2
330
1F
100
AcDbEntity
  8
0
  6
Continuous
 62
     7
370
    25
100
AcDbCircle
 10
-34.5397896867
 20
21.3291893803
 30
0.0
 40
17.40500000000077
100
AcDbArc
 50
51.3895688472
 51
58.5057571321
  0
ARC
  5
F3
330
1F
100
AcDbEntity
  8
0
  6
Continuous
 62
     7
370
    25
100
AcDbCircle
 10
0.0
 20
0.0
 30
0.0
 40
44.22499999949346
100
AcDbArc
 50
125.1278525999
 51
126.1221474001
  0
ARC
  5
F4
330
1F
100
AcDbEntity
  8
0
  6
Continuous
 62
     7
370
    25
100
AcDbCircle
 10
-9.0948005333
 20
39.5628107501
 30
0.0
 40
17.40500000000014
100
AcDbArc
 50
192.7442428667
 51
199.8604311514
  0
ARC
  5
F5
330
1F
100
AcDbEntity
  8
0
  6
Continuous
 62
     7
370
    25
100
AcDbCircle
 10
0.0
 20
0.0
 30
0.0
 40
42.19899999953385
100
AcDbArc
 50
127.1167340143
 51
127.8832659858
  0
ARC
  5
F6
330
1F
100
AcDbEntity
  8
0
  6
Continuous
 62
     7
370
    25
100
AcDbCircle
 10
-35.8608330748
 20
19.02451162
 30
0.0
 40
17.40500000000083
100
AcDbArc
 50
55.1395688484
 51
62.2557571332
  0
ARC
  5
F7
330
1F
100
AcDbEntity
  8
0
  6
Continuous
 62
     7
370
    25
100
AcDbCircle
 10
0.0
 20
0.0
 30
0.0
 40
44.22499999954602
100
AcDbArc
 50
128.8778526
 51
129.8721474001
  0
ARC
  5
F8
330
1F
100
AcDbEntity
  8
0
  6
Continuous
 62
     7
370
    25
100
AcDbCircle
 10
-11.6628594915
 20
38.883275321
 30
0.0
 40
17.4049999999997
100
AcDbArc
 50
196.4942428674
 51
203.6104311523
  0
ARC
  5
F9
330
1F
100
AcDbEntity
  8
0
  6
Continuous
 62
     7
370
    25
100
AcDbCircle
 10
0.0
 20
0.0
 30
0.0
 40
42.19899999950943
100
AcDbArc
 50
130.8667340143
 51
131.6332659857
  0
ARC
  5
FA
330
1F
100
AcDbEntity
  8
0
  6
Continuous
 62
     7
370
    25
100
AcDbCircle
 10
-37.0283148701
 20
16.6383679801
 30
0.0
 40
17.40499999999915
100
AcDbArc
 50
58.8895688497
 51
66.0057571346
  0
ARC
  5
FB
330
1F
100
AcDbEntity
  8
0
  6
Continuous
 62
     7
370
    25
100
AcDbCircle
 10
0.0
 20
0.0
 30
0.0
 40
44.22499999950542
100
AcDbArc
 50
132.6278526
 51
133.6221474001
  0
ARC
  5
FC
330
1F
100
AcDbEntity
  8
0
  6
Continuous
 62
     7
370
    25
100
AcDbCircle
 10
-14.1809762948
 20
38.0372357374
 30
0.0
 40
17.40500000000062
100
AcDbArc
 50
200.2442428677
 51
207.3604311523
  0
ARC
  5
FD
330
1F
100
AcDbEntity
  8
0
  6
Continuous
 62
     7
370
    25
100
AcDbCircle
 10
0.0
 20
0.0
 30
0.0
 40
42.19899999956354
100
AcDbArc
 50
134.6167340143
 51
135.3832659857
  0
ARC
  5
FE
330
1F
100
AcDbEntity
  8
0
  6
Continuous
 62
     7
370
    25
100
AcDbCircle
 10
-38.037235737
 20
14.1809762946
 30
0.0
 40
17.40500000000085
100
AcDbArc
 50
62.639568849
 51
69.7557571339
  0
ARC
  5
FF
330
1F
100
AcDbEntity
  8
0
  6
Continuous
 62
     7
370
    25
100
AcDbCircle
 10
0.0
 20
0.0
 30
0.0
 40
44.22499999957758
100
AcDbArc
 50
136.3778525999
 51
137.3721474001
  0
ARC
  5
100
330
1F
100
AcDbEntity
  8
0
  6
Continuous
 62
     7
370
    25
100
AcDbCircle
 10
-16.6383679805
 20
37.0283148707
 30
0.0
 40
17.4049999999998
100
AcDbArc
 50
203.9942428677
 51
211.1104311527
  0
ARC
  5
101
330
1F
100
AcDbEntity
  8
0
  6
Continuous
 62
     7
370
    25
100
AcDbCircle
 10
0.0
 20
0.0
 30
0.0
 40
42.19899999951888
100
AcDbArc
 50
138.3667340143
 51
139.1332659857
  0
ARC
  5
102
330
1F
100
AcDbEntity
  8
0
  6
Continuous
 62
     7
370
    25
100
AcDbCircle
 10
-38.8832753212
 20
11.6628594915
 30
0.0
 40
17.40499999999903
100
AcDbArc
 50
66.3895688472
 51
73.5057571318
  0
ARC
  5
103
330
1F
100
AcDbEntity
  8
0
  6
Continuous
 62
     7
370
    25
100
AcDbCircle
 10
0.0
 20
0.0
 30
0.0
 40
44.22499999947657
100
AcDbArc
 50
140.1278525998
 51
141.1221474001
  0
ARC
  5
104
330
1F
100
AcDbEntity
  8
0
  6
Continuous
 62
     7
370
    25
100
AcDbCircle
 10
-19.0245116198
 20
35.8608330745
 30
0.0
 40
17.40500000000071
100
AcDbArc
 50
207.744242866
 51
214.8604311507
  0
ARC
  5
105
330
1F
100
AcDbEntity
  8
0
  6
Continuous
 62
     7
370
    25
100
AcDbCircle
 10
0.0
 20
0.0
 30
0.0
 40
42.19899999952184
100
AcDbArc
 50
142.1167340143
 51
142.8832659857
  0
ARC
  5
106
330
1F
100
AcDbEntity
  8
0
  6
Continuous
 62
     7
370
    25
100
AcDbCircle
 10
-39.5628107505
 20
9.0948005334
 30
0.0
 40
17.40500000000014
100
AcDbArc
 50
70.1395688471
 51
77.2557571322
  0
ARC
  5
107
330
1F
100
AcDbEntity
  8
0
  6
Continuous
 62
     7
370
    25
100
AcDbCircle
 10
0.0
 20
0.0
 30
0.0
 40
44.22499999959647
100
AcDbArc
 50
143.8778525999
 51
144.8721474001
  0
ARC
  5
108
330
1F
100
AcDbEntity
  8
0
  6
Continuous
 62
     7
370
    25
100
AcDbCircle
 10
-21.3291893801
 20
34.5397896863
 30
0.0
 40
17.40500000000035
100
AcDbArc
 50
211.4942428664
 51
218.6104311512
  0
ARC
  5
109
330
1F
100
AcDbEntity
  8
0
  6
Continuous
 62
     7
370
    25
100
AcDbCircle
 10
0.0
 20
0.0
 30
0.0
 40
42.1989999996303
100
AcDbArc
 50
145.8667340143
 51
146.6332659857
  0
ARC
  5
10A
330
1F
100
AcDbEntity
  8
0
  6
Continuous
 62
     7
370
    25
100
AcDbCircle
 10
-40.0729321507
 20
6.4877962432
 30
0.0
 40
17.40500000000099
100
AcDbArc
 50
73.8895688466
 51
81.0057571314
  0
ARC
  5
10B
330
1F
100
AcDbEntity
  8
0
  6
Continuous
 62
     7
370
    25
100
AcDbCircle
 10
0.0
 20
0.0
 30
0.0
 40
44.22499999965777
100
AcDbArc
 50
147.6278525998
 51
148.6221474001
  0
ARC
  5
10C
330
1F
100
AcDbEntity
  8
0
  6
Continuous
 62
     7
370
    25
100
AcDbCircle
 10
-23.5425322771
 20
33.0708416161
 30
0.0
 40
17.40500000000009
100
AcDbArc
 50
215.2442428672
 51
222.360431152
  0
ARC
  5
10D
330
1F
100
AcDbEntity
  8
0
  6
Continuous
 62
     7
370
    25
100
AcDbCircle
 10
0.0
 20
0.0
 30
0.0
 40
42.19899999963998
100
AcDbArc
 50
149.6167340143
 51
150.3832659857
  0
ARC
  5
10E
330
1F
100
AcDbEntity
  8
0
  6
Continuous
 62
     7
370
    25
100
AcDbCircle
 10
-40.4114551019
 20
3.8530102132
 30
0.0
 40
17.40500000000049
100
AcDbArc
 50
77.6395688502
 51
84.7557571352
  0
ARC
  5
10F
330
1F
100
AcDbEntity
  8
0
  6
Continuous
 62
     7
370
    25
100
AcDbCircle
 10
0.0
 20
0.0
 30
0.0
 40
44.22499999966256
100
AcDbArc
 50
151.3778526
 51
152.3721474001
  0
ARC
  5
110
330
1F
100
AcDbEntity
  8
0
  6
Continuous
 62
     7
370
    25
100
AcDbCircle
 10
-25.6550624363
 20
31.4602791248
 30
0.0
 40
17.40500000000075
100
AcDbArc
 50
218.9942428675
 51
226.1104311522
  0
ARC
  5
111
330
1F
100
AcDbEntity
  8
0
  6
Continuous
 62
     7
370
    25
100
AcDbCircle
 10
0.0
 20
0.0
 30
0.0
 40
42.19899999967655
100
AcDbArc
 50
153.3667340143
 51
154.1332659857
  0
ARC
  5
112
330
1F
100
AcDbEntity
  8
0
  6
Continuous
 62
     7
370
    25
100
AcDbCircle
 10
-40.5769299998
 20
1.2017250022
 30
0.0
 40
17.4050000000007
100
AcDbArc
 50
81.3895688491
 51
88.5057571341
  0
ARC
  5
113
330
1F
100
AcDbEntity
  8
0
  6
Continuous
 62
     7
370
    25
100
AcDbCircle
 10
0.0
 20
0.0
 30
0.0
 40
44.22499999972285
100
AcDbArc
 50
155.1278525999
 51
156.1221474001
  0
ARC
  5
114
330
1F
100
AcDbEntity
  8
0
  6
Continuous
 62
     7
370
    25
100
AcDbCircle
 10
-27.6577336798
 20
29.7149988885
 30
0.0
 40
17.40499999999908
100
AcDbArc
 50
222.7442428683
 51
229.860431153
  0
ARC
  5
115
330
1F
100
AcDbEntity
  8
0
  6
Continuous
 62
     7
370
    25
100
AcDbCircle
 10
0.0
 20
0.0
 30
0.0
 40
42.19899999974308
100
AcDbArc
 50
157.1167340142
 51
157.8832659857
  0
ARC
  5
116
330
1F
100
AcDbEntity
  8
0
  6
Continuous
 62
     7
370
    25
100
AcDbCircle
 10
-40.5686482539
 20
-1.4547061798
 30
0.0
 40
17.40500000000009
100
AcDbArc
 50
85.139568848
 51
92.2557571327
  0
ARC
  5
117
330
1F
100
AcDbEntity
  8
0
  6
Continuous
 62
     7
370
    25
100
AcDbCircle
 10
0.0
 20
0.0
 30
0.0
 40
44.22499999973265
100
AcDbArc
 50
158.8778525999
 51
159.8721474002
  0
ARC
  5
118
330
1F
100
AcDbEntity
  8
0
  6
Continuous
 62
     7
370
    25
100
AcDbCircle
 10
-29.5419702615
 20
27.842474465
 30
0.0
 40
17.4049999999995
100
AcDbArc
 50
226.4942428691
 51
233.6104311537
  0
ARC
  5
119
330
1F
100
AcDbEntity
  8
0
  6
Continuous
 62
     7
370
    25
100
AcDbCircle
 10
0.0
 20
0.0
 30
0.0
 40
42.198999999751
100
AcDbArc
 50
160.8667340142
 51
161.6332659858
  0
ARC
  5
11A
330
1F
100
AcDbEntity
  8
0
  6
Continuous
 62
     7
370
    25
100
AcDbCircle
 10
-40.3866453283
 20
-4.1049080866
 30
0.0
 40
17.40499999999971
100
AcDbArc
 50
88.889568846
 51
96.005757131
  0
ARC
  5
11B
330
1F
100
AcDbEntity
  8
0
  6
Continuous
 62
     7
370
    25
100
AcDbCircle
 10
0.0
 20
0.0
 30
0.0
 40
44.22499999983101
100
AcDbArc
 50
162.6278525999
 51
163.6221474001
  0
ARC
  5
11C
330
1F
100
AcDbEntity
  8
0
  6
Continuous
 62
     7
370
    25
100
AcDbCircle
 10
-31.2997035906
 20
25.8507242909
 30
0.0
 40
17.40499999999985
100
AcDbArc
 50
230.2442428672
 51
237.3604311519
  0
ARC
  5
11D
330
1F
100
AcDbEntity
  8
0
  6
Continuous
 62
     7
370
    25
100
AcDbCircle
 10
0.0
 20
0.0
 30
0.0
 40
42.19899999986687
100
AcDbArc
 50
164.6167340142
 51
165.3832659857
  0
ARC
  5
11E
330
1F
100
AcDbEntity
  8
0
  6
Continuous
 62
     7
370
    25
100
AcDbCircle
 10
-40.0317005862
 20
-6.7375321468
 30
0.0
 40
17.40500000000037
100
AcDbArc
 50
92.6395688472
 51
99.7557571319
  0
ARC
  5
11F
330
1F
100
AcDbEntity
  8
0
  6
Continuous
 62
     7
370
    25
100
AcDbCircle
 10
0.0
 20
0.0
 30
0.0
 40
44.22499999986118
100
AcDbArc
 50
166.3778525998
 51
167.3721474001
  0
ARC
  5
120
330
1F
100
AcDbEntity
  8
0
  6
Continuous
 62
     7
370
    25
100
AcDbCircle
 10
-32.9234067844
 20
23.7482773472
 30
0.0
 40
17.40499999999848
100
AcDbArc
 50
233.9942428681
 51
241.1104311528
  0
ARC
  5
121
330
1F
100
AcDbEntity
  8
0
  6
Continuous
 62
     7
370
    25
100
AcDbCircle
 10
0.0
 20
0.0
 30
0.0
 40
42.19899999988547
100
AcDbArc
 50
168.3667340142
 51
169.1332659857
  0
ARC
  5
122
330
1F
100
AcDbEntity
  8
0
  6
Continuous
 62
     7
370
    25
100
AcDbCircle
 10
-39.5053339563
 20
-9.34130506
 30
0.0
 40
17.40500000000051
100
AcDbArc
 50
96.3895688481
 51
103.505757133
  0
ARC
  5
123
330
1F
100
AcDbEntity
  8
0
  6
Continuous
 62
     7
370
    25
100
AcDbCircle
 10
0.0
 20
0.0
 30
0.0
 40
44.22499999990207
100
AcDbArc
 50
170.1278525999
 51
171.1221474001
  0
ARC
  5
124
330
1F
100
AcDbEntity
  8
0
  6
Continuous
 62
     7
370
    25
100
AcDbCircle
 10
-34.4061268953
 20
21.5441366338
 30
0.0
 40
17.40500000000018
100
AcDbArc
 50
237.7442428672
 51
244.8604311522
  0
ARC
  5
125
330
1F
100
AcDbEntity
  8
0
  6
Continuous
 62
     7
370
    25
100
AcDbCircle
 10
0.0
 20
0.0
 30
0.0
 40
42.19899999984776
100
AcDbArc
 50
172.1167340142
 51
172.8832659857
  0
ARC
  5
126
330
1F
100
AcDbEntity
  8
0
  6
Continuous
 62
     7
370
    25
100
AcDbCircle
 10
-38.8097994223
 20
-11.905077071
 30
0.0
 40
17.40500000000056
100
AcDbArc
 50
100.1395688465
 51
107.2557571316
  0
ARC
  5
127
330
1F
100
AcDbEntity
  8
0
  6
Continuous
 62
     7
370
    25
100
AcDbCircle
 10
0.0
 20
0.0
 30
0.0
 40
44.22499999993996
100
AcDbArc
 50
173.8778525999
 51
174.8721474001
  0
ARC
  5
128
330
1F
100
AcDbEntity
  8
0
  6
Continuous
 62
     7
370
    25
100
AcDbCircle
 10
-35.7415146891
 20
19.2477406198
 30
0.0
 40
17.40499999999952
100
AcDbArc
 50
241.4942428672
 51
248.6104311518
  0
ARC
  5
129
330
1F
100
AcDbEntity
  8
0
  6
Continuous
 62
     7
370
    25
100
AcDbCircle
 10
0.0
 20
0.0
 30
0.0
 40
42.19899999999775
100
AcDbArc
 50
175.8667340143
 51
176.6332659857
  0
ARC
  5
12A
330
1F
100
AcDbEntity
  8
0
  6
Continuous
 62
     7
370
    25
100
AcDbCircle
 10
-37.9480753681
 20
-14.417869714
 30
0.0
 40
17.40499999999926
100
AcDbArc
 50
103.8895688484
 51
111.0057571333
  0
ARC
  5
12B
330
1F
100
AcDbEntity
  8
0
  6
Continuous
 62
     7
370
    25
100
AcDbCircle
 10
0.0
 20
0.0
 30
0.0
 40
44.22500000001148
100
AcDbArc
 50
177.6278525999
 51
178.6221474001
  0
ARC
  5
12C
330
1F
100
AcDbEntity
  8
0
  6
Continuous
 62
     7
370
    25
100
AcDbCircle
 10
-36.9238518296
 20
16.8689228255
 30
0.0
 40
17.4050000000001
100
AcDbArc
 50
245.2442428667
 51
252.3604311515
  0
ARC
  5
12D
330
1F
100
AcDbEntity
  8
0
  6
Continuous
 62
     7
370
    25
100
AcDbCircle
 10
0.0
 20
0.0
 30
0.0
 40
42.19900000003297
100
AcDbArc
 50
179.6167340143
 51
180.3832659858
  0
ARC
  5
12E
330
1F
100
AcDbEntity
  8
0
  6
Continuous
 62
     7
370
    25
100
AcDbCircle
 10
-36.9238518298
 20
-16.8689228256
 30
0.0
 40
17.40499999999975
100
AcDbArc
 50
107.6395688479
 51
114.7557571326
  0
ARC
  5
12F
330
1F
100
AcDbEntity
  8
0
  6
Continuous
 62
     7
370
    25
100
AcDbCircle
 10
0.0
 20
0.0
 30
0.0
 40
44.22500000000871
100
AcDbArc
 50
181.3778525999
 51
182.3721474001
  0
ARC
  5
130
330
1F
100
AcDbEntity
  8
0
  6
Continuous
 62
     7
370
    25
100
AcDbCircle
 10
-37.9480753683
 20
14.417869714
 30
0.0
 40
17.40499999999994
100
AcDbArc
 50
248.9942428677
 51
256.1104311524
  0
ARC
  5
131
330
1F
100
AcDbEntity
  8
0
  6
Continuous
 62
     7
370
    25
100
AcDbCircle
 10
0.0
 20
0.0
 30
0.0
 40
42.19900000003226
100
AcDbArc
 50
183.3667340143
 51
184.1332659857
  0
ARC
  5
132
330
1F
100
AcDbEntity
  8
0
  6
Continuous
 62
     7
370
    25
100
AcDbCircle
 10
-35.7415146892
 20
-19.2477406198
 30
0.0
 40
17.4050000000001
100
AcDbArc
 50
111.3895688478
 51
118.505757133
  0
ARC
  5
133
330
1F
100
AcDbEntity
  8
0
  6
Continuous
 62
     7
370
    25
100
AcDbCircle
 10
0.0
 20
0.0
 30
0.0
 40
44.22500000012025
100
AcDbArc
 50
185.1278525999
 51
186.1221474001
  0
ARC
  5
134
330
1F
100
AcDbEntity
  8
0
  6
Continuous
 62
     7
370
    25
100
AcDbCircle
 10
-38.809799422
 20
11.9050770708
 30
0.0
 40
17.40500000000065
100
AcDbArc
 50
252.7442428668
 51
259.8604311516
  0
ARC
  5
135
330
1F
100
AcDbEntity
  8
0
  6
Continuous
 62
     7
370
    25
100
AcDbCircle
 10
0.0
 20
0.0
 30
0.0
 40
42.19900000012396
100
AcDbArc
 50
187.1167340143
 51
187.8832659858
  0
ARC
  5
136
330
1F
100
AcDbEntity
  8
0
  6
Continuous
 62
     7
370
    25
100
AcDbCircle
 10
-34.4061268954
 20
-21.5441366337
 30
0.0
 40
17.40500000000019
100
AcDbArc
 50
115.1395688485
 51
122.2557571332
  0
ARC
  5
137
330
1F
100
AcDbEntity
  8
0
  6
Continuous
 62
     7
370
    25
100
AcDbCircle
 10
0.0
 20
0.0
 30
0.0
 40
44.22500000008449
100
AcDbArc
 50
188.8778525999
 51
189.8721474002
  0
ARC
  5
138
330
1F
100
AcDbEntity
  8
0
  6
Continuous
 62
     7
370
    25
100
AcDbCircle
 10
-39.5053339567
 20
9.34130506
 30
0.0
 40
17.40500000000003
100
AcDbArc
 50
256.4942428676
 51
263.6104311523
  0
ARC
  5
139
330
1F
100
AcDbEntity
  8
0
  6
Continuous
 62
     7
370
    25
100
AcDbCircle
 10
0.0
 20
0.0
 30
0.0
 40
42.19900000010897
100
AcDbArc
 50
190.8667340143
 51
191.6332659857
  0
ARC
  5
13A
330
1F
100
AcDbEntity
  8
0
  6
Continuous
 62
     7
370
    25
100
AcDbCircle
 10
-32.9234067841
 20
-23.7482773469
 30
0.0
 40
17.4050000000007
100
AcDbArc
 50
118.8895688492
 51
126.0057571343
  0
ARC
  5
13B
330
1F
100
AcDbEntity
  8
0
  6
Continuous
 62
     7
370
    25
100
AcDbCircle
 10
0.0
 20
0.0
 30
0.0
 40
44.22500000015756
100
AcDbArc
 50
192.6278526
 51
193.6221474001
  0
ARC
  5
13C
330
1F
100
AcDbEntity
  8
0
  6
Continuous
 62
     7
370
    25
100
AcDbCircle
 10
-40.0317005862
 20
6.7375321468
 30
0.0
 40
17.405
100
AcDbArc
 50
260.2442428673
 51
267.3604311523
  0
ARC
  5
13D
330
1F
100
AcDbEntity
  8
0
  6
Continuous
 62
     7
370
    25
100
AcDbCircle
 10
0.0
 20
0.0
 30
0.0
 40
42.1990000000829
100
AcDbArc
 50
194.6167340143
 51
195.3832659858
  0
ARC
  5
13E
330
1F
100
AcDbEntity
  8
0
  6
Continuous
 62
     7
370
    25
100
AcDbCircle
 10
-31.2997035911
 20
-25.8507242911
 30
0.0
 40
17.40499999999977
100
AcDbArc
 50
122.6395688471
 51
129.7557571321
  0
ARC
  5
13F
330
1F
100
AcDbEntity
  8
0
  6
Continuous
 62
     7
370
    25
100
AcDbCircle
 10
0.0
 20
0.0
 30
0.0
 40
44.22500000013978
100
AcDbArc
 50
196.3778525999
 51
197.3721474001
  0
ARC
  5
140
330
1F
100
AcDbEntity
  8
0
  6
Continuous
 62
     7
370
    25
100
AcDbCircle
 10
-40.3866453276
 20
4.1049080865
 30
0.0
 40
17.40500000000041
100
AcDbArc
 50
263.9942428659
 51
271.1104311508
  0
ARC
  5
141
330
1F
100
AcDbEntity
  8
0
  6
Continuous
 62
     7
370
    25
100
AcDbCircle
 10
0.0
 20
0.0
 30
0.0
 40
42.1990000001275
100
AcDbArc
 50
198.3667340143
 51
199.1332659857
  0
ARC
  5
142
330
1F
100
AcDbEntity
  8
0
  6
Continuous
 62
     7
370
    25
100
AcDbCircle
 10
-29.5419702614
 20
-27.8424744647
 30
0.0
 40
17.40500000000053
100
AcDbArc
 50
126.3895688483
 51
133.5057571332
  0
ARC
  5
143
330
1F
100
AcDbEntity
  8
0
  6
Continuous
 62
     7
370
    25
100
AcDbCircle
 10
0.0
 20
0.0
 30
0.0
 40
44.2250000001639
100
AcDbArc
 50
200.1278525999
 51
201.1221474001
  0
ARC
  5
144
330
1F
100
AcDbEntity
  8
0
  6
Continuous
 62
     7
370
    25
100
AcDbCircle
 10
-40.5686482543
 20
1.4547061796
 30
0.0
 40
17.40499999999948
100
AcDbArc
 50
267.7442428671
 51
274.8604311518
  0
ARC
  5
145
330
1F
100
AcDbEntity
  8
0
  6
Continuous
 62
     7
370
    25
100
AcDbCircle
 10
0.0
 20
0.0
 30
0.0
 40
42.19900000019348
100
AcDbArc
 50
202.1167340143
 51
202.8832659857
  0
ARC
  5
146
330
1F
100
AcDbEntity
  8
0
  6
Continuous
 62
     7
370
    25
100
AcDbCircle
 10
-27.6577336799
 20
-29.7149988884
 30
0.0
 40
17.40499999999952
100
AcDbArc
 50
130.1395688481
 51
137.255757133
  0
ARC
  5
147
330
1F
100
AcDbEntity
  8
0
  6
Continuous
 62
     7
370
    25
100
AcDbCircle
 10
0.0
 20
0.0
 30
0.0
 40
44.2250000002194
100
AcDbArc
 50
203.8778525999
 51
204.8721474002
  0
ARC
  5
148
330
1F
100
AcDbEntity
  8
0
  6
Continuous
 62
     7
370
    25
100
AcDbCircle
 10
-40.576930001
 20
-1.2017250025
 30
0.0
 40
17.40500000000036
100
AcDbArc
 50
271.4942428684
 51
278.6104311531
  0
ARC
  5
149
330
1F
100
AcDbEntity
  8
0
  6
Continuous
 62
     7
370
    25
100
AcDbCircle
 10
0.0
 20
0.0
 30
0.0
 40
42.19900000026289
100
AcDbArc
 50
205.8667340143
 51
206.6332659857
  0
ARC
  5
14A
330
1F
100
AcDbEntity
  8
0
  6
Continuous
 62
     7
370
    25
100
AcDbCircle
 10
-25.655062437
 20
-31.4602791251
 30
0.0
 40
17.40500000000168
100
AcDbArc
 50
133.8895688472
 51
141.0057571321
  0
ARC
  5
14B
330
1F
100
AcDbEntity
  8
0
  6
Continuous
 62
     7
370
    25
100
AcDbCircle
 10
0.0
 20
0.0
 30
0.0
 40
44.22500000028671
100
AcDbArc
 50
207.6278525998
 51
208.6221474002
  0
ARC
  5
14C
330
1F
100
AcDbEntity
  8
0
  6
Continuous
 62
     7
370
    25
100
AcDbCircle
 10
-40.4114551032
 20
-3.8530102136
 30
0.0
 40
17.40500000000094
100
AcDbArc
 50
275.2442428673
 51
282.3604311521
  0
ARC
  5
14D
330
1F
100
AcDbEntity
  8
0
  6
Continuous
 62
     7
370
    25
100
AcDbCircle
 10
0.0
 20
0.0
 30
0.0
 40
42.1990000002997
100
AcDbArc
 50
209.6167340143
 51
210.3832659857
  0
ARC
  5
14E
330
1F
100
AcDbEntity
  8
0
  6
Continuous
 62
     7
370
    25
100
AcDbCircle
 10
-23.5425322771
 20
-33.0708416159
 30
0.0
 40
17.4049999999986
100
AcDbArc
 50
137.6395688504
 51
144.7557571352
  0
ARC
  5
14F
330
1F
100
AcDbEntity
  8
0
  6
Continuous
 62
     7
370
    25
100
AcDbCircle
 10
0.0
 20
0.0
 30
0.0
 40
44.22500000026645
100
AcDbArc
 50
211.3778526
 51
212.3721474001
  0
ARC
  5
150
330
1F
100
AcDbEntity
  8
0
  6
Continuous
 62
     7
370
    25
100
AcDbCircle
 10
-40.0729321507
 20
-6.4877962434
 30
0.0
 40
17.40500000000003
100
AcDbArc
 50
278.9942428667
 51
286.1104311513
  0
ARC
  5
151
330
1F
100
AcDbEntity
  8
0
  6
Continuous
 62
     7
370
    25
100
AcDbCircle
 10
0.0
 20
0.0
 30
0.0
 40
42.19900000033682
100
AcDbArc
 50
213.3667340143
 51
214.1332659858
  0
ARC
  5
152
330
1F
100
AcDbEntity
  8
0
  6
Continuous
 62
     7
370
    25
100
AcDbCircle
 10
-21.329189381
 20
-34.5397896872
 30
0.0
 40
17.40500000000029
100
AcDbArc
 50
141.3895688471
 51
148.5057571319
  0
ARC
  5
153
330
1F
100
AcDbEntity
  8
0
  6
Continuous
 62
     7
370
    25
100
AcDbCircle
 10
0.0
 20
0.0
 30
0.0
 40
44.22500000032879
100
AcDbArc
 50
215.1278525999
 51
216.1221474001
  0
ARC
  5
154
330
1F
100
AcDbEntity
  8
0
  6
Continuous
 62
     7
370
    25
100
AcDbCircle
 10
-39.5628107508
 20
-9.0948005338
 30
0.0
 40
17.40499999999956
100
AcDbArc
 50
282.7442428667
 51
289.8604311514
  0
ARC
  5
155
330
1F
100
AcDbEntity
  8
0
  6
Continuous
 62
     7
370
    25
100
AcDbCircle
 10
0.0
 20
0.0
 30
0.0
 40
42.19900000036957
100
AcDbArc
 50
217.1167340143
 51
217.8832659858
  0
ARC
  5
156
330
1F
100
AcDbEntity
  8
0
  6
Continuous
 62
     7
370
    25
100
AcDbCircle
 10
-19.0245116209
 20
-35.8608330757
 30
0.0
 40
17.40499999999977
100
AcDbArc
 50
145.1395688469
 51
152.2557571316
  0
ARC
  5
157
330
1F
100
AcDbEntity
  8
0
  6
Continuous
 62
     7
370
    25
100
AcDbCircle
 10
0.0
 20
0.0
 30
0.0
 40
44.22500000037581
100
AcDbArc
 50
218.8778525999
 51
219.8721474001
  0
ARC
  5
158
330
1F
100
AcDbEntity
  8
0
  6
Continuous
 62
     7
370
    25
100
AcDbCircle
 10
-38.8832753217
 20
-11.662859492
 30
0.0
 40
17.40499999999971
100
AcDbArc
 50
286.4942428674
 51
293.6104311523
  0
ARC
  5
159
330
1F
100
AcDbEntity
  8
0
  6
Continuous
 62
     7
370
    25
100
AcDbCircle
 10
0.0
 20
0.0
 30
0.0
 40
42.19900000033903
100
AcDbArc
 50
220.8667340143
 51
221.6332659857
  0
ARC
  5
15A
330
1F
100
AcDbEntity
  8
0
  6
Continuous
 62
     7
370
    25
100
AcDbCircle
 10
-16.638367981
 20
-37.028314871
 30
0.0
 40
17.40500000000014
100
AcDbArc
 50
148.8895688482
 51
156.0057571329
  0
ARC
  5
15B
330
1F
100
AcDbEntity
  8
0
  6
Continuous
 62
     7
370
    25
100
AcDbCircle
 10
0.0
 20
0.0
 30
0.0
 40
44.22500000032787
100
AcDbArc
 50
222.6278525999
 51
223.6221474002
  0
ARC
  5
15C
330
1F
100
AcDbEntity
  8
0
  6
Continuous
 62
     7
370
    25
100
AcDbCircle
 10
-38.037235738
 20
-14.1809762954
 30
0.0
 40
17.40500000000069
100
AcDbArc
 50
290.2442428678
 51
297.3604311523
  0
ARC
  5
15D
330
1F
100
AcDbEntity
  8
0
  6
Continuous
 62
     7
370
    25
100
AcDbCircle
 10
0.0
 20
0.0
 30
0.0
 40
42.19900000038598
100
AcDbArc
 50
224.6167340143
 51
225.3832659857
  0
ARC
  5
15E
330
1F
100
AcDbEntity
  8
0
  6
Continuous
 62
     7
370
    25
100
AcDbCircle
 10
-14.1809762952
 20
-38.0372357376
 30
0.0
 40
17.40500000000025
100
AcDbArc
 50
152.639568849
 51
159.7557571339
  0
ARC
  5
15F
330
1F
100
AcDbEntity
  8
0
  6
Continuous
 62
     7
370
    25
100
AcDbCircle
 10
0.0
 20
0.0
 30
0.0
 40
44.22500000040048
100
AcDbArc
 50
226.3778525999
 51
227.3721474001
  0
ARC
  5
160
330
1F
100
AcDbEntity
  8
0
  6
Continuous
 62
     7
370
    25
100
AcDbCircle
 10
-37.0283148712
 20
-16.6383679811
 30
0.0
 40
17.40499999999964
100
AcDbArc
 50
293.9942428673
 51
301.1104311522
  0
ARC
  5
161
330
1F
100
AcDbEntity
  8
0
  6
Continuous
 62
     7
370
    25
100
AcDbCircle
 10
0.0
 20
0.0
 30
0.0
 40
42.1990000003909
100
AcDbArc
 50
228.3667340143
 51
229.1332659858
  0
ARC
  5
162
330
1F
100
AcDbEntity
  8
0
  6
Continuous
 62
     7
370
    25
100
AcDbCircle
 10
-11.6628594919
 20
-38.8832753212
 30
0.0
 40
17.40499999999905
100
AcDbArc
 50
156.3895688494
 51
163.505757134
  0
ARC
  5
163
330
1F
100
AcDbEntity
  8
0
  6
Continuous
 62
     7
370
    25
100
AcDbCircle
 10
0.0
 20
0.0
 30
0.0
 40
44.22500000031622
100
AcDbArc
 50
230.1278525999
 51
231.1221474001
  0
ARC
  5
164
330
1F
100
AcDbEntity
  8
0
  6
Continuous
 62
     7
370
    25
100
AcDbCircle
 10
-35.8608330751
 20
-19.0245116205
 30
0.0
 40
17.40499999999968
100
AcDbArc
 50
297.744242866
 51
304.8604311507
  0
ARC
  5
165
330
1F
100
AcDbEntity
  8
0
  6
Continuous
 62
     7
370
    25
100
AcDbCircle
 10
0.0
 20
0.0
 30
0.0
 40
42.19900000036208
100
AcDbArc
 50
232.1167340142
 51
232.8832659858
  0
ARC
  5
166
330
1F
100
AcDbEntity
  8
0
  6
Continuous
 62
     7
370
    25
100
AcDbCircle
 10
-9.0948005339
 20
-39.5628107512
 30
0.0
 40
17.40499999999954
100
AcDbArc
 50
160.1395688471
 51
167.2557571321
  0
ARC
  5
167
330
1F
100
AcDbEntity
  8
0
  6
Continuous
 62
     7
370
    25
100
AcDbCircle
 10
0.0
 20
0.0
 30
0.0
 40
44.22500000043826
100
AcDbArc
 50
233.8778525999
 51
234.8721474001
  0
ARC
  5
168
330
1F
100
AcDbEntity
  8
0
  6
Continuous
 62
     7
370
    25
100
AcDbCircle
 10
-34.5397896873
 20
-21.3291893811
 30
0.0
 40
17.40500000000022
100
AcDbArc
 50
301.4942428682
 51
308.610431153
  0
ARC
  5
169
330
1F
100
AcDbEntity
  8
0
  6
Continuous
 62
     7
370
    25
100
AcDbCircle
 10
0.0
 20
0.0
 30
0.0
 40
42.19900000042599
100
AcDbArc
 50
235.8667340142
 51
236.6332659857
  0
ARC
  5
16A
330
1F
100
AcDbEntity
  8
0
  6
Continuous
 62
     7
370
    25
100
AcDbCircle
 10
-6.4877962436
 20
-40.072932151
 30
0.0
 40
17.4050000000009
100
AcDbArc
 50
163.8895688478
 51
171.0057571325
  0
ARC
  5
16B
330
1F
100
AcDbEntity
  8
0
  6
Continuous
 62
     7
370
    25
100
AcDbCircle
 10
0.0
 20
0.0
 30
0.0
 40
44.22500000041367
100
AcDbArc
 50
237.6278525999
 51
238.6221474001
  0
ARC
  5
16C
330
1F
100
AcDbEntity
  8
0
  6
Continuous
 62
     7
370
    25
100
AcDbCircle
 10
-33.0708416165
 20
-23.5425322777
 30
0.0
 40
17.40499999999913
100
AcDbArc
 50
305.2442428671
 51
312.360431152
  0
ARC
  5
16D
330
1F
100
AcDbEntity
  8
0
  6
Continuous
 62
     7
370
    25
100
AcDbCircle
 10
0.0
 20
0.0
 30
0.0
 40
42.19900000039605
100
AcDbArc
 50
239.6167340143
 51
240.3832659857
  0
ARC
  5
16E
330
1F
100
AcDbEntity
  8
0
  6
Continuous
 62
     7
370
    25
100
AcDbCircle
 10
-3.8530102136
 20
-40.4114551026
 30
0.0
 40
17.40500000000078
100
AcDbArc
 50
167.63956885
 51
174.7557571351
  0
ARC
  5
16F
330
1F
100
AcDbEntity
  8
0
  6
Continuous
 62
     7
370
    25
100
AcDbCircle
 10
0.0
 20
0.0
 30
0.0
 40
44.22500000044591
100
AcDbArc
 50
241.3778526
 51
242.3721474001
  0
ARC
  5
170
330
1F
100
AcDbEntity
  8
0
  6
Continuous
 62
     7
370
    25
100
AcDbCircle
 10
-31.4602791251
 20
-25.655062437
 30
0.0
 40
17.40500000000121
100
AcDbArc
 50
308.9942428675
 51
316.1104311522
  0
ARC
  5
171
330
1F
100
AcDbEntity
  8
0
  6
Continuous
 62
     7
370
    25
100
AcDbCircle
 10
0.0
 20
0.0
 30
0.0
 40
42.19900000045968
100
AcDbArc
 50
243.3667340143
 51
244.1332659857
  0
ARC
  5
172
330
1F
100
AcDbEntity
  8
0
  6
Continuous
 62
     7
370
    25
100
AcDbCircle
 10
-1.2017250026
 20
-40.5769300004
 30
0.0
 40
17.40500000000093
100
AcDbArc
 50
171.3895688494
 51
178.5057571343
  0
ARC
  5
173
330
1F
100
AcDbEntity
  8
0
  6
Continuous
 62
     7
370
    25
100
AcDbCircle
 10
0.0
 20
0.0
 30
0.0
 40
44.22500000047924
100
AcDbArc
 50
245.1278525999
 51
246.1221474001
  0
ARC
  5
174
330
1F
100
AcDbEntity
  8
0
  6
Continuous
 62
     7
370
    25
100
AcDbCircle
 10
-29.7149988888
 20
-27.6577336805
 30
0.0
 40
17.40500000000002
100
AcDbArc
 50
312.7442428684
 51
319.8604311531
  0
ARC
  5
175
330
1F
100
AcDbEntity
  8
0
  6
Continuous
 62
     7
370
    25
100
AcDbCircle
 10
0.0
 20
0.0
 30
0.0
 40
42.19900000049888
100
AcDbArc
 50
247.1167340142
 51
247.8832659858
  0
ARC
  5
176
330
1F
100
AcDbEntity
  8
0
  6
Continuous
 62
     7
370
    25
100
AcDbCircle
 10
1.4547061797
 20
-40.5686482526
 30
0.0
 40
17.40500000000007
100
AcDbArc
 50
175.1395688546
 51
182.2557571378
  0
ARC
  5
177
330
1F
100
AcDbEntity
  8
0
  6
Continuous
 62
     7
370
    25
100
AcDbCircle
 10
0.0
 20
0.0
 30
0.0
 40
44.22499999995063
100
AcDbArc
 50
248.8778525999
 51
249.8721474002
  0
ARC
  5
178
330
1F
100
AcDbEntity
  8
0
  6
Continuous
 62
     7
370
    25
100
AcDbCircle
 10
-27.8424744651
 20
-29.5419702617
 30
0.0
 40
17.4050000000009
100
AcDbArc
 50
316.4942428691
 51
323.6104311538
  0
ARC
  5
179
330
1F
100
AcDbEntity
  8
0
  6
Continuous
 62
     7
370
    25
100
AcDbCircle
 10
0.0
 20
0.0
 30
0.0
 40
42.19899999996843
100
AcDbArc
 50
250.8667340142
 51
251.6332659858
  0
ARC
  5
17A
330
1F
100
AcDbEntity
  8
0
  6
Continuous
 62
     7
370
    25
100
AcDbCircle
 10
4.1049080866
 20
-40.3866453283
 30
0.0
 40
17.4049999999997
100
AcDbArc
 50
178.8895688463
 51
186.0057571312
  0
ARC
  5
17B
330
1F
100
AcDbEntity
  8
0
  6
Continuous
 62
     7
370
    25
100
AcDbCircle
 10
0.0
 20
0.0
 30
0.0
 40
44.22500000001436
100
AcDbArc
 50
252.6278525999
 51
253.6221474001
  0
ARC
  5
17C
330
1F
100
AcDbEntity
  8
0
  6
Continuous
 62
     7
370
    25
100
AcDbCircle
 10
-25.8507242911
 20
-31.2997035909
 30
0.0
 40
17.40499999999946
100
AcDbArc
 50
320.2442428676
 51
327.3604311525
  0
ARC
  5
17D
330
1F
100
AcDbEntity
  8
0
  6
Continuous
 62
     7
370
    25
100
AcDbCircle
 10
0.0
 20
0.0
 30
0.0
 40
42.19899999999079
100
AcDbArc
 50
254.6167340142
 51
255.3832659857
  0
ARC
  5
17E
330
1F
100
AcDbEntity
  8
0
  6
Continuous
 62
     7
370
    25
100
AcDbCircle
 10
6.7375321468
 20
-40.0317005862
 30
0.0
 40
17.4050000000004
100
AcDbArc
 50
182.6395688474
 51
189.7557571321
  0
ARC
  5
17F
330
1F
100
AcDbEntity
  8
0
  6
Continuous
 62
     7
370
    25
100
AcDbCircle
 10
0.0
 20
0.0
 30
0.0
 40
44.22499999995747
100
AcDbArc
 50
256.3778525998
 51
257.3721474001
  0
ARC
  5
180
330
1F
100
AcDbEntity
  8
0
  6
Continuous
 62
     7
370
    25
100
AcDbCircle
 10
-23.7482773473
 20
-32.9234067845
 30
0.0
 40
17.40500000000017
100
AcDbArc
 50
323.9942428682
 51
331.1104311529
  0
ARC
  5
181
330
1F
100
AcDbEntity
  8
0
  6
Continuous
 62
     7
370
    25
100
AcDbCircle
 10
0.0
 20
0.0
 30
0.0
 40
42.19899999997823
100
AcDbArc
 50
258.3667340142
 51
259.1332659857
  0
ARC
  5
182
330
1F
100
AcDbEntity
  8
0
  6
Continuous
 62
     7
370
    25
100
AcDbCircle
 10
9.34130506
 20
-39.5053339566
 30
0.0
 40
17.40500000000009
100
AcDbArc
 50
186.3895688476
 51
193.5057571325
  0
ARC
  5
183
330
1F
100
AcDbEntity
  8
0
  6
Continuous
 62
     7
370
    25
100
AcDbCircle
 10
0.0
 20
0.0
 30
0.0
 40
44.22500000000591
100
AcDbArc
 50
260.1278525998
 51
261.1221474002
  0
ARC
  5
184
330
1F
100
AcDbEntity
  8
0
  6
Continuous
 62
     7
370
    25
100
AcDbCircle
 10
-21.5441366341
 20
-34.4061268961
 30
0.0
 40
17.40499999999993
100
AcDbArc
 50
327.7442428696
 51
334.8604311544
  0
ARC
  5
185
330
1F
100
AcDbEntity
  8
0
  6
Continuous
 62
     7
370
    25
100
AcDbCircle
 10
0.0
 20
0.0
 30
0.0
 40
42.19899999996633
100
AcDbArc
 50
262.1167340142
 51
262.8832659858
  0
ARC
  5
186
330
1F
100
AcDbEntity
  8
0
  6
Continuous
 62
     7
370
    25
100
AcDbCircle
 10
11.9050770709
 20
-38.809799422
 30
0.0
 40
17.40500000000052
100
AcDbArc
 50
190.1395688479
 51
197.2557571326
  0
ARC
  5
187
330
1F
100
AcDbEntity
  8
0
  6
Continuous
 62
     7
370
    25
100
AcDbCircle
 10
0.0
 20
0.0
 30
0.0
 40
44.22499999992343
100
AcDbArc
 50
263.8778525999
 51
264.8721474001
  0
ARC
  5
188
330
1F
100
AcDbEntity
  8
0
  6
Continuous
 62
     7
370
    25
100
AcDbCircle
 10
-19.2477406197
 20
-35.7415146889
 30
0.0
 40
17.40500000000002
100
AcDbArc
 50
331.4942428668
 51
338.6104311513
  0
ARC
  5
189
330
1F
100
AcDbEntity
  8
0
  6
Continuous
 62
     7
370
    25
100
AcDbCircle
 10
0.0
 20
0.0
 30
0.0
 40
42.19900000001478
100
AcDbArc
 50
265.8667340143
 51
266.6332659857
  0
ARC
  5
18A
330
1F
100
AcDbEntity
  8
0
  6
Continuous
 62
     7
370
    25
100
AcDbCircle
 10
14.4178697139
 20
-37.948075368
 30
0.0
 40
17.40500000000027
100
AcDbArc
 50
193.8895688485
 51
201.0057571334
  0
ARC
  5
18B
330
1F
100
AcDbEntity
  8
0
  6
Continuous
 62
     7
370
    25
100
AcDbCircle
 10
0.0
 20
0.0
 30
0.0
 40
44.22500000003233
100
AcDbArc
 50
267.6278525999
 51
268.6221474001
  0
ARC
  5
18C
330
1F
100
AcDbEntity
  8
0
  6
Continuous
 62
     7
370
    25
100
AcDbCircle
 10
-16.8689228255
 20
-36.9238518296
 30
0.0
 40
17.40499999999908
100
AcDbArc
 50
335.2442428667
 51
342.3604311516
  0
ARC
  5
18D
330
1F
100
AcDbEntity
  8
0
  6
Continuous
 62
     7
370
    25
100
AcDbCircle
 10
0.0
 20
0.0
 30
0.0
 40
42.19900000001842
100
AcDbArc
 50
269.6167340143
 51
270.3832659858
  0
ARC
  5
18E
330
1F
100
AcDbEntity
  8
0
  6
Continuous
 62
     7
370
    25
100
AcDbCircle
 10
16.8689228255
 20
-36.9238518297
 30
0.0
 40
17.40499999999964
100
AcDbArc
 50
197.6395688482
 51
204.7557571328
  0
ARC
  5
18F
330
1F
100
AcDbEntity
  8
0
  6
Continuous
 62
     7
370
    25
100
AcDbCircle
 10
0.0
 20
0.0
 30
0.0
 40
44.22499999995737
100
AcDbArc
 50
271.3778525999
 51
272.3721474001
  0
ARC
  5
190
330
1F
100
AcDbEntity
  8
0
  6
Continuous
 62
     7
370
    25
100
AcDbCircle
 10
-14.4178697141
 20
-37.9480753683
 30
0.0
 40
17.40500000000034
100
AcDbArc
 50
338.9942428677
 51
346.1104311524
  0
ARC
  5
191
330
1F
100
AcDbEntity
  8
0
  6
Continuous
 62
     7
370
    25
100
AcDbCircle
 10
0.0
 20
0.0
 30
0.0
 40
42.19899999998076
100
AcDbArc
 50
273.3667340143
 51
274.1332659857
  0
ARC
  5
192
330
1F
100
AcDbEntity
  8
0
  6
Continuous
 62
     7
370
    25
100
AcDbCircle
 10
19.2477406197
 20
-35.7415146889
 30
0.0
 40
17.40500000000011
100
AcDbArc
 50
201.3895688487
 51
208.5057571336
  0
ARC
  5
193
330
1F
100
AcDbEntity
  8
0
  6
Continuous
 62
     7
370
    25
100
AcDbCircle
 10
0.0
 20
0.0
 30
0.0
 40
44.2249999999846
100
AcDbArc
 50
275.1278525999
 51
276.1221474001
  0
ARC
  5
194
330
1F
100
AcDbEntity
  8
0
  6
Continuous
 62
     7
370
    25
100
AcDbCircle
 10
-11.9050770709
 20
-38.8097994218
 30
0.0
 40
17.40499999999999
100
AcDbArc
 50
342.7442428667
 51
349.8604311516
  0
ARC
  5
195
330
1F
100
AcDbEntity
  8
0
  6
Continuous
 62
     7
370
    25
100
AcDbCircle
 10
0.0
 20
0.0
 30
0.0
 40
42.19899999998863
100
AcDbArc
 50
277.1167340143
 51
277.8832659857
  0
ARC
  5
196
330
1F
100
AcDbEntity
  8
0
  6
Continuous
 62
     7
370
    25
100
AcDbCircle
 10
21.5441366333
 20
-34.4061268946
 30
0.0
 40
17.4049999999995
100
AcDbArc
 50
205.1395688508
 51
212.2557571357
  0
ARC
  5
197
330
1F
100
AcDbEntity
  8
0
  6
Continuous
 62
     7
370
    25
100
AcDbCircle
 10
0.0
 20
0.0
 30
0.0
 40
44.22499999995517
100
AcDbArc
 50
278.8778526
 51
279.8721474002
  0
ARC
  5
198
330
1F
100
AcDbEntity
  8
0
  6
Continuous
 62
     7
370
    25
100
AcDbCircle
 10
-9.34130506
 20
-39.5053339566
 30
0.0
 40
17.40500000000002
100
AcDbArc
 50
346.4942428676
 51
353.6104311523
  0
ARC
  5
199
330
1F
100
AcDbEntity
  8
0
  6
Continuous
 62
     7
370
    25
100
AcDbCircle
 10
0.0
 20
0.0
 30
0.0
 40
42.19899999997968
100
AcDbArc
 50
280.8667340143
 51
281.6332659857
  0
ARC
  5
19A
330
1F
100
AcDbEntity
  8
0
  6
Continuous
 62
     7
370
    25
100
AcDbCircle
 10
23.7482773472
 20
-32.9234067845
 30
0.0
 40
17.40499999999869
100
AcDbArc
 50
208.8895688472
 51
216.0057571322
  0
ARC
  5
19B
330
1F
100
AcDbEntity
  8
0
  6
Continuous
 62
     7
370
    25
100
AcDbCircle
 10
0.0
 20
0.0
 30
0.0
 40
44.22500000003976
100
AcDbArc
 50
282.6278525999
 51
283.6221474001
  0
ARC
  5
19C
330
1F
100
AcDbEntity
  8
0
  6
Continuous
 62
     7
370
    25
100
AcDbCircle
 10
-6.7375321468
 20
-40.0317005861
 30
0.0
 40
17.40499999999999
100
AcDbArc
 50
350.2442428673
 51
357.3604311523
  0
ARC
  5
19D
330
1F
100
AcDbEntity
  8
0
  6
Continuous
 62
     7
370
    25
100
AcDbCircle
 10
0.0
 20
0.0
 30
0.0
 40
42.19899999996502
100
AcDbArc
 50
284.6167340143
 51
285.3832659858
  0
ARC
  5
19E
330
1F
100
AcDbEntity
  8
0
  6
Continuous
 62
     7
370
    25
100
AcDbCircle
 10
25.8507242909
 20
-31.2997035906
 30
0.0
 40
17.4049999999997
100
AcDbArc
 50
212.6395688484
 51
219.7557571332
  0
ARC
  5
19F
330
1F
100
AcDbEntity
  8
0
  6
Continuous
 62
     7
370
    25
100
AcDbCircle
 10
0.0
 20
0.0
 30
0.0
 40
44.22499999996595
100
AcDbArc
 50
286.3778525999
 51
287.3721474001
  0
ARC
  5
1A0
330
1F
100
AcDbEntity
  8
0
  6
Continuous
 62
     7
370
    25
100
AcDbCircle
 10
-4.1049080866
 20
-40.3866453275
 30
0.0
 40
17.40499999999958
100
AcDbArc
 50
353.9942428659
 51
1.1104311508
  0
ARC
  5
1A1
330
1F
100
AcDbEntity
  8
0
  6
Continuous
 62
     7
370
    25
100
AcDbCircle
 10
0.0
 20
0.0
 30
0.0
 40
42.19899999995401
100
AcDbArc
 50
288.3667340143
 51
289.1332659857
  0
ARC
  5
1A2
330
1F
100
AcDbEntity
  8
0
  6
Continuous
 62
     7
370
    25
100
AcDbCircle
 10
27.8424744646
 20
-29.5419702612
 30
0.0
 40
17.40500000000058
100
AcDbArc
 50
216.3895688484
 51
223.5057571333
  0
ARC
  5
1A3
330
1F
100
AcDbEntity
  8
0
  6
Continuous
 62
     7
370
    25
100
AcDbCircle
 10
0.0
 20
0.0
 30
0.0
 40
44.22499999998106
100
AcDbArc
 50
290.1278525999
 51
291.1221474001
  0
ARC
  5
1A4
330
1F
100
AcDbEntity
  8
0
  6
Continuous
 62
     7
370
    25
100
AcDbCircle
 10
-1.4547061797
 20
-40.5686482541
 30
0.0
 40
17.40499999999971
100
AcDbArc
 50
357.7442428672
 51
4.8604311519
  0
ARC
  5
1A5
330
1F
100
AcDbEntity
  8
0
  6
Continuous
 62
     7
370
    25
100
AcDbCircle
 10
0.0
 20
0.0
 30
0.0
 40
42.19899999999691
100
AcDbArc
 50
292.1167340143
 51
292.8832659857
  0
ARC
  5
1A6
330
1F
100
AcDbEntity
  8
0
  6
Continuous
 62
     7
370
    25
100
AcDbCircle
 10
29.7149988883
 20
-27.6577336797
 30
0.0
 40
17.40500000000012
100
AcDbArc
 50
220.1395688484
 51
227.2557571332
  0
ARC
  5
1A7
330
1F
100
AcDbEntity
  8
0
  6
Continuous
 62
     7
370
    25
100
AcDbCircle
 10
0.0
 20
0.0
 30
0.0
 40
44.22499999999881
100
AcDbArc
 50
293.8778525999
 51
294.8721474002
  0
ARC
  5
1A8
330
1F
100
AcDbEntity
  8
0
  6
Continuous
 62
     7
370
    25
100
AcDbCircle
 10
1.2017250024
 20
-40.5769300008
 30
0.0
 40
17.40499999999961
100
AcDbArc
 50
1.4942428687
 51
8.6104311534
  0
ARC
  5
1A9
330
1F
100
AcDbEntity
  8
0
  6
Continuous
 62
     7
370
    25
100
AcDbCircle
 10
0.0
 20
0.0
 30
0.0
 40
42.19900000000656
100
AcDbArc
 50
295.8667340143
 51
296.6332659857
  0
ARC
  5
1AA
330
1F
100
AcDbEntity
  8
0
  6
Continuous
 62
     7
370
    25
100
AcDbCircle
 10
31.460279125
 20
-25.6550624367
 30
0.0
 40
17.40500000000025
100
AcDbArc
 50
223.8895688474
 51
231.0057571322
  0
ARC
  5
1AB
330
1F
100
AcDbEntity
  8
0
  6
Continuous
 62
     7
370
    25
100
AcDbCircle
 10
0.0
 20
0.0
 30
0.0
 40
44.22500000000549
100
AcDbArc
 50
297.6278525998
 51
298.6221474002
  0
ARC
  5
1AC
330
1F
100
AcDbEntity
  8
0
  6
Continuous
 62
     7
370
    25
100
AcDbCircle
 10
3.8530102136
 20
-40.4114551036
 30
0.0
 40
17.40500000000058
100
AcDbArc
 50
5.2442428696
 51
12.3604311543
  0
ARC
  5
1AD
330
1F
100
AcDbEntity
  8
0
  6
Continuous
 62
     7
370
    25
100
AcDbCircle
 10
0.0
 20
0.0
 30
0.0
 40
42.19900000000995
100
AcDbArc
 50
299.6167340142
 51
300.3832659857
  0
ARC
  5
1AE
330
1F
100
AcDbEntity
  8
0
  6
Continuous
 62
     7
370
    25
100
AcDbCircle
 10
33.0708416158
 20
-23.5425322769
 30
0.0
 40
17.40499999999951
100
AcDbArc
 50
227.6395688502
 51
234.755757135
  0
ARC
  5
1AF
330
1F
100
AcDbEntity
  8
0
  6
Continuous
 62
     7
370
    25
100
AcDbCircle
 10
0.0
 20
0.0
 30
0.0
 40
44.22499999999956
100
AcDbArc
 50
301.3778526
 51
302.3721474001
  0
ARC
  5
1B0
330
1F
100
AcDbEntity
  8
0
  6
Continuous
 62
     7
370
    25
100
AcDbCircle
 10
6.4877962433
 20
-40.0729321505
 30
0.0
 40
17.40500000000004
100
AcDbArc
 50
8.9942428671
 51
16.1104311519
  0
ARC
  5
1B1
330
1F
100
AcDbEntity
  8
0
  6
Continuous
 62
     7
370
    25
100
AcDbCircle
 10
0.0
 20
0.0
 30
0.0
 40
42.19900000001952
100
AcDbArc
 50
303.3667340143
 51
304.1332659858
  0
ARC
  5
1B2
330
1F
100
AcDbEntity
  8
0
  6
Continuous
 62
     7
370
    25
100
AcDbCircle
 10
34.5397896869
 20
-21.3291893807
 30
0.0
 40
17.40500000000025
100
AcDbArc
 50
231.3895688473
 51
238.505757132
  0
ARC
  5
1B3
330
1F
100
AcDbEntity
  8
0
  6
Continuous
 62
     7
370
    25
100
AcDbCircle
 10
0.0
 20
0.0
 30
0.0
 40
44.22499999999757
100
AcDbArc
 50
305.1278525999
 51
306.1221474001
  0
ARC
  5
1B4
330
1F
100
AcDbEntity
  8
0
  6
Continuous
 62
     7
370
    25
100
AcDbCircle
 10
9.0948005336
 20
-39.5628107506
 30
0.0
 40
17.40500000000015
100
AcDbArc
 50
12.744242867
 51
19.8604311519
  0
ARC
  5
1B5
330
1F
100
AcDbEntity
  8
0
  6
Continuous
 62
     7
370
    25
100
AcDbCircle
 10
0.0
 20
0.0
 30
0.0
 40
42.19899999999426
100
AcDbArc
 50
307.1167340143
 51
307.8832659858
  0
ARC
  5
1B6
330
1F
100
AcDbEntity
  8
0
  6
Continuous
 62
     7
370
    25
100
AcDbCircle
 10
35.8608330755
 20
-19.0245116206
 30
0.0
 40
17.40499999999999
100
AcDbArc
 50
235.1395688468
 51
242.2557571316
  0
ARC
  5
1B7
330
1F
100
AcDbEntity
  8
0
  6
Continuous
 62
     7
370
    25
100
AcDbCircle
 10
0.0
 20
0.0
 30
0.0
 40
44.22500000001224
100
AcDbArc
 50
308.8778525999
 51
309.8721474001
  0
ARC
  5
1B8
330
1F
100
AcDbEntity
  8
0
  6
Continuous
 62
     7
370
    25
100
AcDbCircle
 10
11.6628594917
 20
-38.8832753213
 30
0.0
 40
17.40499999999975
100
AcDbArc
 50
16.4942428672
 51
23.610431152
  0
ARC
  5
1B9
330
1F
100
AcDbEntity
  8
0
  6
Continuous
 62
     7
370
    25
100
AcDbCircle
 10
0.0
 20
0.0
 30
0.0
 40
42.19900000000499
100
AcDbArc
 50
310.8667340143
 51
311.6332659857
  0
ARC
  5
1BA
330
1F
100
AcDbEntity
  8
0
  6
Continuous
 62
     7
370
    25
100
AcDbCircle
 10
37.0283148708
 20
-16.6383679807
 30
0.0
 40
17.40499999999946
100
AcDbArc
 50
238.8895688482
 51
246.0057571329
  0
ARC
  5
1BB
330
1F
100
AcDbEntity
  8
0
  6
Continuous
 62
     7
370
    25
100
AcDbCircle
 10
0.0
 20
0.0
 30
0.0
 40
44.22499999999123
100
AcDbArc
 50
312.6278525999
 51
313.6221474002
  0
ARC
  5
1BC
330
1F
100
AcDbEntity
  8
0
  6
Continuous
 62
     7
370
    25
100
AcDbCircle
 10
14.1809762951
 20
-38.0372357378
 30
0.0
 40
17.40500000000036
100
AcDbArc
 50
20.2442428679
 51
27.3604311526
  0
ARC
  5
1BD
330
1F
100
AcDbEntity
  8
0
  6
Continuous
 62
     7
370
    25
100
AcDbCircle
 10
0.0
 20
0.0
 30
0.0
 40
42.19900000002451
100
AcDbArc
 50
314.6167340143
 51
315.3832659857
  0
ARC
  5
1BE
330
1F
100
AcDbEntity
  8
0
  6
Continuous
 62
     7
370
    25
100
AcDbCircle
 10
38.0372357372
 20
-14.1809762949
 30
0.0
 40
17.40500000000088
100
AcDbArc
 50
242.6395688492
 51
249.755757134
  0
ARC
  5
1BF
330
1F
100
AcDbEntity
  8
0
  6
Continuous
 62
     7
370
    25
100
AcDbCircle
 10
0.0
 20
0.0
 30
0.0
 40
44.22500000002338
100
AcDbArc
 50
316.3778525999
 51
317.3721474001
  0
ARC
  5
1C0
330
1F
100
AcDbEntity
  8
0
  6
Continuous
 62
     7
370
    25
100
AcDbCircle
 10
16.6383679808
 20
-37.0283148709
 30
0.0
 40
17.40499999999992
100
AcDbArc
 50
23.9942428673
 51
31.1104311521
  0
ARC
  5
1C1
330
1F
100
AcDbEntity
  8
0
  6
Continuous
 62
     7
370
    25
100
AcDbCircle
 10
0.0
 20
0.0
 30
0.0
 40
42.19900000001855
100
AcDbArc
 50
318.3667340143
 51
319.1332659857
  0
ARC
  5
1C2
330
1F
100
AcDbEntity
  8
0
  6
Continuous
 62
     7
370
    25
100
AcDbCircle
 10
38.8832753216
 20
-11.6628594919
 30
0.0
 40
17.40499999999972
100
AcDbArc
 50
246.3895688471
 51
253.5057571318
  0
ARC
  5
1C3
330
1F
100
AcDbEntity
  8
0
  6
Continuous
 62
     7
370
    25
100
AcDbCircle
 10
0.0
 20
0.0
 30
0.0
 40
44.22499999998641
100
AcDbArc
 50
320.1278525998
 51
321.1221474001
  0
ARC
  5
1C4
330
1F
100
AcDbEntity
  8
0
  6
Continuous
 62
     7
370
    25
100
AcDbCircle
 10
19.0245116202
 20
-35.8608330749
 30
0.0
 40
17.4049999999992
100
AcDbArc
 50
27.7442428664
 51
34.8604311513
  0
ARC
  5
1C5
330
1F
100
AcDbEntity
  8
0
  6
Continuous
 62
     7
370
    25
100
AcDbCircle
 10
0.0
 20
0.0
 30
0.0
 40
42.19899999998067
100
AcDbArc
 50
322.1167340143
 51
322.8832659858
  0
ARC
  5
1C6
330
1F
100
AcDbEntity
  8
0
  6
Continuous
 62
     7
370
    25
100
AcDbCircle
 10
39.5628107508
 20
-9.0948005336
 30
0.0
 40
17.4049999999993
100
AcDbArc
 50
250.1395688474
 51
257.2557571324
  0
ARC
  5
1C7
330
1F
100
AcDbEntity
  8
0
  6
Continuous
 62
     7
370
    25
100
AcDbCircle
 10
0.0
 20
0.0
 30
0.0
 40
44.22500000002344
100
AcDbArc
 50
323.8778525999
 51
324.8721474001
  0
ARC
  5
1C8
330
1F
100
AcDbEntity
  8
0
  6
Continuous
 62
     7
370
    25
100
AcDbCircle
 10
21.3291893808
 20
-34.5397896871
 30
0.0
 40
17.40500000000023
100
AcDbArc
 50
31.4942428684
 51
38.6104311534
  0
ARC
  5
1C9
330
1F
100
AcDbEntity
  8
0
  6
Continuous
 62
     7
370
    25
100
AcDbCircle
 10
0.0
 20
0.0
 30
0.0
 40
42.19899999997861
100
AcDbArc
 50
325.8667340142
 51
326.6332659857
  0
ARC
  5
1CA
330
1F
100
AcDbEntity
  8
0
  6
Continuous
 62
     7
370
    25
100
AcDbCircle
 10
40.072932151
 20
-6.4877962434
 30
0.0
 40
17.4050000000013
100
AcDbArc
 50
253.8895688465
 51
261.0057571314
  0
ARC
  5
1CB
330
1F
100
AcDbEntity
  8
0
  6
Continuous
 62
     7
370
    25
100
AcDbCircle
 10
0.0
 20
0.0
 30
0.0
 40
44.22500000001656
100
AcDbArc
 50
327.6278525998
 51
328.6221474001
  0
ARC
  5
1CC
330
1F
100
AcDbEntity
  8
0
  6
Continuous
 62
     7
370
    25
100
AcDbCircle
 10
23.5425322774
 20
-33.0708416163
 30
0.0
 40
17.4050000000005
100
AcDbArc
 50
35.2442428672
 51
42.3604311521
  0
ARC
  5
1CD
330
1F
100
AcDbEntity
  8
0
  6
Continuous
 62
     7
370
    25
100
AcDbCircle
 10
0.0
 20
0.0
 30
0.0
 40
42.19899999999023
100
AcDbArc
 50
329.6167340143
 51
330.3832659857
  0
ARC
  5
1CE
330
1F
100
AcDbEntity
  8
0
  6
Continuous
 62
     7
370
    25
100
AcDbCircle
 10
40.4114551022
 20
-3.8530102133
 30
0.0
 40
17.40500000000011
100
AcDbArc
 50
257.6395688503
 51
264.7557571353
  0
ARC
  5
1CF
330
1F
100
AcDbEntity
  8
0
  6
Continuous
 62
     7
370
    25
100
AcDbCircle
 10
0.0
 20
0.0
 30
0.0
 40
44.22500000000583
100
AcDbArc
 50
331.3778526
 51
332.3721474001
  0
ARC
  5
1D0
330
1F
100
AcDbEntity
  8
0
  6
Continuous
 62
     7
370
    25
100
AcDbCircle
 10
25.6550624369
 20
-31.4602791253
 30
0.0
 40
17.4050000000001
100
AcDbArc
 50
38.9942428689
 51
46.1104311537
  0
ARC
  5
1D1
330
1F
100
AcDbEntity
  8
0
  6
Continuous
 62
     7
370
    25
100
AcDbCircle
 10
0.0
 20
0.0
 30
0.0
 40
42.19899999997728
100
AcDbArc
 50
333.3667340142
 51
334.1332659857
  0
ARC
  5
1D2
330
1F
100
AcDbEntity
  8
0
  6
Continuous
 62
     7
370
    25
100
AcDbCircle
 10
40.5769299999
 20
-1.2017250023
 30
0.0
 40
17.40500000000025
100
AcDbArc
 50
261.3895688493
 51
268.5057571343
  0
ARC
  5
1D3
330
1F
100
AcDbEntity
  8
0
  6
Continuous
 62
     7
370
    25
100
AcDbCircle
 10
0.0
 20
0.0
 30
0.0
 40
44.22500000000233
100
AcDbArc
 50
335.1278525999
 51
336.1221474001
  0
ARC
  5
1D4
330
1F
100
AcDbEntity
  8
0
  6
Continuous
 62
     7
370
    25
100
AcDbCircle
 10
27.65773368
 20
-29.7149988887
 30
0.0
 40
17.40499999999916
100
AcDbArc
 50
42.7442428685
 51
49.8604311533
  0
ARC
  5
1D5
330
1F
100
AcDbEntity
  8
0
  6
Continuous
 62
     7
370
    25
100
AcDbCircle
 10
0.0
 20
0.0
 30
0.0
 40
42.19899999999888
100
AcDbArc
 50
337.1167340142
 51
337.8832659857
  0
ARC
  5
1D6
330
1F
100
AcDbEntity
  8
0
  6
Continuous
 62
     7
370
    25
100
AcDbCircle
 10
40.5686482538
 20
1.4547061797
 30
0.0
 40
17.40500000000047
100
AcDbArc
 50
265.1395688491
 51
272.2557571339
  0
ARC
  5
1D7
330
1F
100
AcDbEntity
  8
0
  6
Continuous
 62
     7
370
    25
100
AcDbCircle
 10
0.0
 20
0.0
 30
0.0
 40
44.22499999996099
100
AcDbArc
 50
338.8778525999
 51
339.8721474002
  0
ARC
  5
1D8
330
1F
100
AcDbEntity
  8
0
  6
Continuous
 62
     7
370
    25
100
AcDbCircle
 10
29.5419702617
 20
-27.8424744651
 30
0.0
 40
17.40500000000069
100
AcDbArc
 50
46.4942428692
 51
53.6104311539
  0
ARC
  5
1D9
330
1F
100
AcDbEntity
  8
0
  6
Continuous
 62
     7
370
    25
100
AcDbCircle
 10
0.0
 20
0.0
 30
0.0
 40
42.1989999999658
100
AcDbArc
 50
340.8667340142
 51
341.6332659858
  0
ARC
  5
1DA
330
1F
100
AcDbEntity
  8
0
  6
Continuous
 62
     7
370
    25
100
AcDbCircle
 10
40.3866453283
 20
4.1049080866
 30
0.0
 40
17.4050000000001
100
AcDbArc
 50
268.8895688463
 51
276.0057571312
  0
ARC
  5
1DB
330
1F
100
AcDbEntity
  8
0
  6
Continuous
 62
     7
370
    25
100
AcDbCircle
 10
0.0
 20
0.0
 30
0.0
 40
44.22500000001551
100
AcDbArc
 50
342.6278525999
 51
343.6221474001
  0
ARC
  5
1DC
330
1F
100
AcDbEntity
  8
0
  6
Continuous
 62
     7
370
    25
100
AcDbCircle
 10
31.2997035909
 20
-25.8507242911
 30
0.0
 40
17.40499999999945
100
AcDbArc
 50
50.2442428676
 51
57.3604311525
  0
ARC
  5
1DD
330
1F
100
AcDbEntity
  8
0
  6
Continuous
 62
     7
370
    25
100
AcDbCircle
 10
0.0
 20
0.0
 30
0.0
 40
42.1989999999908
100
AcDbArc
 50
344.6167340142
 51
345.3832659857
  0
ARC
  5
1DE
330
1F
100
AcDbEntity
  8
0
  6
Continuous
 62
     7
370
    25
100
AcDbCircle
 10
40.0317005863
 20
6.7375321468
 30
0.0
 40
17.40500000000036
100
AcDbArc
 50
272.639568847
 51
279.7557571318
  0
ARC
  5
1DF
330
1F
100
AcDbEntity
  8
0
  6
Continuous
 62
     7
370
    25
100
AcDbCircle
 10
0.0
 20
0.0
 30
0.0
 40
44.22499999999633
100
AcDbArc
 50
346.3778525998
 51
347.3721474001
  0
ARC
  5
1E0
330
1F
100
AcDbEntity
  8
0
  6
Continuous
 62
     7
370
    25
100
AcDbCircle
 10
32.9234067844
 20
-23.7482773472
 30
0.0
 40
17.40500000000006
100
AcDbArc
 50
53.9942428678
 51
61.1104311526
  0
ARC
  5
1E1
330
1F
100
AcDbEntity
  8
0
  6
Continuous
 62
     7
370
    25
100
AcDbCircle
 10
0.0
 20
0.0
 30
0.0
 40
42.19899999999471
100
AcDbArc
 50
348.3667340143
 51
349.1332659857
  0
ARC
  5
1E2
330
1F
100
AcDbEntity
  8
0
  6
Continuous
 62
     7
370
    25
100
AcDbCircle
 10
39.5053339565
 20
9.34130506
 30
0.0
 40
17.40500000000029
100
AcDbArc
 50
276.3895688479
 51
283.5057571327
  0
ARC
  5
1E3
330
1F
100
AcDbEntity
  8
0
  6
Continuous
 62
     7
370
    25
100
AcDbCircle
 10
0.0
 20
0.0
 30
0.0
 40
44.22499999999977
100
AcDbArc
 50
350.1278525998
 51
351.1221474002
  0
ARC
  5
1E4
330
1F
100
AcDbEntity
  8
0
  6
Continuous
 62
     7
370
    25
100
AcDbCircle
 10
34.406126896
 20
-21.544136634
 30
0.0
 40
17.4049999999999
100
AcDbArc
 50
57.7442428695
 51
64.8604311544
  0
ARC
  5
1E5
330
1F
100
AcDbEntity
  8
0
  6
Continuous
 62
     7
370
    25
100
AcDbCircle
 10
0.0
 20
0.0
 30
0.0
 40
42.19899999996748
100
AcDbArc
 50
352.1167340142
 51
352.8832659857
  0
ARC
  5
1E6
330
1F
100
AcDbEntity
  8
0
  6
Continuous
 62
     7
370
    25
100
AcDbCircle
 10
38.8097994221
 20
11.9050770709
 30
0.0
 40
17.40500000000053
100
AcDbArc
 50
280.1395688473
 51
287.2557571321
  0
ARC
  5
1E7
330
1F
100
AcDbEntity
  8
0
  6
Continuous
 62
     7
370
    25
100
AcDbCircle
 10
0.0
 20
0.0
 30
0.0
 40
44.2249999999552
100
AcDbArc
 50
353.8778525999
 51
354.8721474001
  0
ARC
  5
1E8
330
1F
100
AcDbEntity
  8
0
  6
Continuous
 62
     7
370
    25
100
AcDbCircle
 10
35.7415146891
 20
-19.2477406198
 30
0.0
 40
17.40499999999951
100
AcDbArc
 50
61.4942428673
 51
68.610431152
  0
ARC
  5
1E9
330
1F
100
AcDbEntity
  8
0
  6
Continuous
 62
     7
370
    25
100
AcDbCircle
 10
0.0
 20
0.0
 30
0.0
 40
42.19899999999794
100
AcDbArc
 50
355.8667340143
 51
356.6332659857
  0
ARC
  5
1EA
330
1F
100
AcDbEntity
  8
0
  6
Continuous
 62
     7
370
    25
100
AcDbCircle
 10
37.948075368
 20
14.4178697139
 30
0.0
 40
17.40500000000056
100
AcDbArc
 50
283.8895688486
 51
291.0057571335
  0
ARC
  5
1EB
330
1F
100
AcDbEntity
  8
0
  6
Continuous
 62
     7
370
    25
100
AcDbCircle
 10
0.0
 20
0.0
 30
0.0
 40
44.2250000000073
100
AcDbArc
 50
357.6278525999
 51
358.6221474001
  0
ARC
  5
1EC
330
1F
100
AcDbEntity
  8
0
  6
Continuous
 62
     7
370
    25
100
AcDbCircle
 10
36.9238518295
 20
-16.8689228255
 30
0.0
 40
17.40499999999959
100
AcDbArc
 50
65.2442428665
 51
72.3604311513
  0
ARC
  5
1ED
330
1F
100
AcDbEntity
  8
0
  6
Continuous
 62
     7
370
    25
100
AcDbCircle
 10
0.0
 20
0.0
 30
0.0
 40
42.19900000001846
100
AcDbArc
 50
359.6167340143
 51
0.3832659858
  0
ARC
  5
1EE
330
1F
100
AcDbEntity
  8
0
  6
Continuous
 62
     7
370
    25
100
AcDbCircle
 10
36.9238518297
 20
16.8689228256
 30
0.0
 40
17.40500000000009
100
AcDbArc
 50
287.6395688479
 51
294.7557571326
  0
ARC
  5
1EF
330
1F
100
AcDbEntity
  8
0
  6
Continuous
 62
     7
370
    25
100
AcDbCircle
 10
0.0
 20
0.0
 30
0.0
 40
44.22499999998734
100
AcDbArc
 50
1.3778525999
 51
2.3721474001
  0
ARC
  5
1F0
330
1F
100
AcDbEntity
  8
0
  6
Continuous
 62
     7
370
    25
100
AcDbCircle
 10
37.9480753683
 20
-14.4178697141
 30
0.0
 40
17.40499999999984
100
AcDbArc
 50
68.994242868
 51
76.1104311528
  0
ARC
  5
1F1
330
1F
100
AcDbEntity
  8
0
  6
Continuous
 62
     7
370
    25
100
AcDbCircle
 10
0.0
 20
0.0
 30
0.0
 40
42.19899999998074
100
AcDbArc
 50
3.3667340143
 51
4.1332659857
  0
ARC
  5
1F2
330
1F
100
AcDbEntity
  8
0
  6
Continuous
 62
     7
370
    25
100
AcDbCircle
 10
35.7415146889
 20
19.2477406197
 30
0.0
 40
17.40500000000013
100
AcDbArc
 50
291.3895688487
 51
298.5057571336
  0
ARC
  5
1F3
330
1F
100
AcDbEntity
  8
0
  6
Continuous
 62
     7
370
    25
100
AcDbCircle
 10
0.0
 20
0.0
 30
0.0
 40
44.22500000001089
100
AcDbArc
 50
5.1278525999
 51
6.1221474001
  0
CIRCLE
  5
1F4
330
1F
100
AcDbEntity
  8
0
  6
Continuous
 62
     7
370
    25
100
AcDbCircle
 10
0.0
 20
-9.3
 30
0.0
 40
1.374999999999999
  0
CIRCLE
  5
1F5
330
1F
100
AcDbEntity
  8
0
  6
Continuous
 62
     7
370
    25
100
AcDbCircle
 10
0.0
 20
0.0
 30
0.0
 40
3.275000000016494
  0
MTEXT
  5
1F7
330
1F
100
AcDbEntity
  8
0
  6
Continuous
 62
     7
100
AcDbMText
 10
-44.2122127496
 20
-45.2317791413
 30
0.0
 40
4.83362
 41
0.0
 71
     1
 72
     1
  1
SOLIDWORKS Educational Product.
  7
SLDTEXTSTYLE0
 73
     1
 44
1.0
  0
MTEXT
  5
1F8
330
1F
100
AcDbEntity
  8
0
  6
Continuous
 62
     7
100
AcDbMText
 10
-44.2122127496
 20
-52.4822091413
 30
0.0
 40
4.83362
 41
0.0
 71
     1
 72
     1
  1
For Instructional Use Only.
  7
SLDTEXTSTYLE0
 73
     1
 44
1.0
  0
ENDSEC
  0
SECTION
  2
OBJECTS
  0
DICTIONARY
  5
C
330
0
100
AcDbDictionary
281
     1
  3
ACAD_GROUP
350
D
  3
ACAD_LAYOUT
350
1A
  3
ACAD_MLINESTYLE
350
17
  3
ACAD_PLOTSETTINGS
350
19
  3
ACAD_PLOTSTYLENAME
350
E
  3
ACAD_SCALELIST
350
47
  0
DICTIONARY
  5
D
102
{ACAD_REACTORS
330
C
102
}
330
C
100
AcDbDictionary
281
     1
  0
DICTIONARY
  5
1A
102
{ACAD_REACTORS
330
C
102
}
330
C
100
AcDbDictionary
281
     1
  3
Layout1
350
1E
  3
Layout2
350
26
  3
Model
350
22
  0
DICTIONARY
  5
17
102
{ACAD_REACTORS
330
C
102
}
330
C
100
AcDbDictionary
281
     1
  3
Standard
350
18
  0
DICTIONARY
  5
19
102
{ACAD_REACTORS
330
C
102
}
330
C
100
AcDbDictionary
281
     1
  0
ACDBDICTIONARYWDFLT
  5
E
102
{ACAD_REACTORS
330
C
102
}
330
C
100
AcDbDictionary
281
     1
  3
Normal
350
F
100
AcDbDictionaryWithDefault
340
F
  0
DICTIONARY
  5
47
102
{ACAD_REACTORS
330
C
102
}
330
C
100
AcDbDictionary
281
     1
  3
A0
350
48
  3
A1
350
49
  3
A2
350
4A
  3
A3
350
4B
  3
A4
350
4C
  3
A5
350
4D
  3
A6
350
4E
  3
A7
350
4F
  3
A8
350
50
  3
A9
350
51
  3
B0
350
52
  3
B1
350
53
  3
B2
350
54
  3
B3
350
55
  3
B4
350
56
  3
B5
350
57
  3
B6
350
58
  3
B7
350
59
  3
B8
350
5A
  3
B9
350
5B
  3
C0
350
5C
  3
C1
350
5D
  3
C2
350
5E
  3
C3
350
5F
  3
C4
350
60
  3
C5
350
61
  3
C6
350
62
  3
C7
350
63
  3
C8
350
64
  3
C9
350
65
  3
D0
350
66
  3
D1
350
67
  3
D2
350
68
  0
LAYOUT
  5
1E
102
{ACAD_REACTORS
330
1A
102
}
330
1A
100
AcDbPlotSettings
  1

  2
none_device
  4

  6

 40
0.0
 41
0.0
 42
0.0
 43
0.0
 44
0.0
 45
0.0
 46
0.0
 47
0.0
 48
0.0
 49
0.0
140
0.0
141
0.0
142
1.0
143
1.0
 70
   688
 72
     1
 73
     0
 74
     5
  7

 75
    16
147
1.0
148
0.0
149
0.0
100
AcDbLayout
  1
Layout1
 70
     1
 71
     1
 10
0.0
 20
0.0
 11
420.0
 21
297.0
 12
0.0
 22
0.0
 32
0.0
 14
1.0000000000E+20
 24
1.0000000000E+20
 34
1.0000000000E+20
 15
-1.0000000000E+20
 25
-1.0000000000E+20
 35
-1.0000000000E+20
146
0.0
 13
0.0
 23
0.0
 33
0.0
 16
1.0
 26
0.0
 36
0.0
 17
0.0
 27
1.0
 37
0.0
 76
     0
330
1B
  0
LAYOUT
  5
26
102
{ACAD_REACTORS
330
1A
102
}
330
1A
100
AcDbPlotSettings
  1

  2
none_device
  4

  6

 40
0.0
 41
0.0
 42
0.0
 43
0.0
 44
0.0
 45
0.0
 46
0.0
 47
0.0
 48
0.0
 49
0.0
140
0.0
141
0.0
142
1.0
143
1.0
 70
   688
 72
     1
 73
     0
 74
     5
  7

 75
    16
147
1.0
148
0.0
149
0.0
100
AcDbLayout
  1
Layout2
 70
     1
 71
     2
 10
0.0
 20
0.0
 11
0.0
 21
0.0
 12
0.0
 22
0.0
 32
0.0
 14
0.0
 24
0.0
 34
0.0
 15
0.0
 25
0.0
 35
0.0
146
0.0
 13
0.0
 23
0.0
 33
0.0
 16
1.0
 26
0.0
 36
0.0
 17
0.0
 27
1.0
 37
0.0
 76
     0
330
23
  0
LAYOUT
  5
22
102
{ACAD_REACTORS
330
1A
102
}
330
1A
100
AcDbPlotSettings
  1

  2
none_device
  4
ANSI_A_(11.00_x_8.50_Inches)
  6

 40
6.35
 41
19.05
 42
6.35000508
 43
19.05000254
 44
279.4
 45
215.9
 46
133.34999746
 47
88.89999873
 48
0.0
 49
0.0
140
0.0
141
0.0
142
0.0951660127
143
1.0
 70
  1696
 72
     0
 73
     0
 74
     0
  7

 75
     0
147
0.0179189148
148
-1300.4909072572
149
0.0
100
AcDbLayout
  1
Model
 70
     1
 71
     0
 10
0.0
 20
0.0
 11
420.0
 21
297.0
 12
0.0
 22
0.0
 32
0.0
 14
-44.2122127496
 24
-44.2122127496
 34
0.0
 15
44.2122127495
 25
44.2122127496
 35
0.0
146
0.0
 13
0.0
 23
0.0
 33
0.0
 16
1.0
 26
0.0
 36
0.0
 17
0.0
 27
1.0
 37
0.0
 76
     0
330
1F
331
29
  0
MLINESTYLE
  5
18
102
{ACAD_REACTORS
330
17
102
}
330
17
100
AcDbMlineStyle
  2
Standard
 70
     0
  3

 62
   256
 51
90.0
 52
90.0
 71
     2
 49
0.5
 62
   256
  6
BYLAYER
 49
-0.5
 62
   256
  6
BYLAYER
  0
ACDBPLACEHOLDER
  5
F
102
{ACAD_REACTORS
330
E
102
}
330
E
  0
SCALE
  5
48
102
{ACAD_REACTORS
330
47
102
}
330
47
100
AcDbScale
 70
     0
300
1:1
140
1.0
141
1.0
290
     1
  0
SCALE
  5
49
102
{ACAD_REACTORS
330
47
102
}
330
47
100
AcDbScale
 70
     0
300
1:2
140
1.0
141
2.0
290
     0
  0
SCALE
  5
4A
102
{ACAD_REACTORS
330
47
102
}
330
47
100
AcDbScale
 70
     0
300
1:4
140
1.0
141
4.0
290
     0
  0
SCALE
  5
4B
102
{ACAD_REACTORS
330
47
102
}
330
47
100
AcDbScale
 70
     0
300
1:5
140
1.0
141
5.0
290
     0
  0
SCALE
  5
4C
102
{ACAD_REACTORS
330
47
102
}
330
47
100
AcDbScale
 70
     0
300
1:8
140
1.0
141
8.0
290
     0
  0
SCALE
  5
4D
102
{ACAD_REACTORS
330
47
102
}
330
47
100
AcDbScale
 70
     0
300
1:10
140
1.0
141
10.0
290
     0
  0
SCALE
  5
4E
102
{ACAD_REACTORS
330
47
102
}
330
47
100
AcDbScale
 70
     0
300
1:16
140
1.0
141
16.0
290
     0
  0
SCALE
  5
4F
102
{ACAD_REACTORS
330
47
102
}
330
47
100
AcDbScale
 70
     0
300
1:20
140
1.0
141
20.0
290
     0
  0
SCALE
  5
50
102
{ACAD_REACTORS
330
47
102
}
330
47
100
AcDbScale
 70
     0
300
1:30
140
1.0
141
30.0
290
     0
  0
SCALE
  5
51
102
{ACAD_REACTORS
330
47
102
}
330
47
100
AcDbScale
 70
     0
300
1:40
140
1.0
141
40.0
290
     0
  0
SCALE
  5
52
102
{ACAD_REACTORS
330
47
102
}
330
47
100
AcDbScale
 70
     0
300
1:50
140
1.0
141
50.0
290
     0
  0
SCALE
  5
53
102
{ACAD_REACTORS
330
47
102
}
330
47
100
AcDbScale
 70
     0
300
1:100
140
1.0
141
100.0
290
     0
  0
SCALE
  5
54
102
{ACAD_REACTORS
330
47
102
}
330
47
100
AcDbScale
 70
     0
300
2:1
140
2.0
141
1.0
290
     0
  0
SCALE
  5
55
102
{ACAD_REACTORS
330
47
102
}
330
47
100
AcDbScale
 70
     0
300
4:1
140
4.0
141
1.0
290
     0
  0
SCALE
  5
56
102
{ACAD_REACTORS
330
47
102
}
330
47
100
AcDbScale
 70
     0
300
8:1
140
8.0
141
1.0
290
     0
  0
SCALE
  5
57
102
{ACAD_REACTORS
330
47
102
}
330
47
100
AcDbScale
 70
     0
300
10:1
140
10.0
141
1.0
290
     0
  0
SCALE
  5
58
102
{ACAD_REACTORS
330
47
102
}
330
47
100
AcDbScale
 70
     0
300
100:1
140
100.0
141
1.0
290
     0
  0
SCALE
  5
59
102
{ACAD_REACTORS
330
47
102
}
330
47
100
AcDbScale
 70
     0
300
1/128" = 1'-0"
140
0.0078125
141
12.0
290
     0
  0
SCALE
  5
5A
102
{ACAD_REACTORS
330
47
102
}
330
47
100
AcDbScale
 70
     0
300
1/64" = 1'-0"
140
0.015625
141
12.0
290
     0
  0
SCALE
  5
5B
102
{ACAD_REACTORS
330
47
102
}
330
47
100
AcDbScale
 70
     0
300
1/32" = 1'-0"
140
0.03125
141
12.0
290
     0
  0
SCALE
  5
5C
102
{ACAD_REACTORS
330
47
102
}
330
47
100
AcDbScale
 70
     0
300
1/16" = 1'-0"
140
0.0625
141
12.0
290
     0
  0
SCALE
  5
5D
102
{ACAD_REACTORS
330
47
102
}
330
47
100
AcDbScale
 70
     0
300
3/32" = 1'-0"
140
0.09375
141
12.0
290
     0
  0
SCALE
  5
5E
102
{ACAD_REACTORS
330
47
102
}
330
47
100
AcDbScale
 70
     0
300
1/8" = 1'-0"
140
0.125
141
12.0
290
     0
  0
SCALE
  5
5F
102
{ACAD_REACTORS
330
47
102
}
330
47
100
AcDbScale
 70
     0
300
3/16" = 1'-0"
140
0.1875
141
12.0
290
     0
  0
SCALE
  5
60
102
{ACAD_REACTORS
330
47
102
}
330
47
100
AcDbScale
 70
     0
300
1/4" = 1'-0"
140
0.25
141
12.0
290
     0
  0
SCALE
  5
61
102
{ACAD_REACTORS
330
47
102
}
330
47
100
AcDbScale
 70
     0
300
3/8" = 1'-0"
140
0.375
141
12.0
290
     0
  0
SCALE
  5
62
102
{ACAD_REACTORS
330
47
102
}
330
47
100
AcDbScale
 70
     0
300
1/2" = 1'-0"
140
0.5
141
12.0
290
     0
  0
SCALE
  5
63
102
{ACAD_REACTORS
330
47
102
}
330
47
100
AcDbScale
 70
     0
300
3/4" = 1'-0"
140
0.75
141
12.0
290
     0
  0
SCALE
  5
64
102
{ACAD_REACTORS
330
47
102
}
330
47
100
AcDbScale
 70
     0
300
1" = 1'-0"
140
1.0
141
12.0
290
     0
  0
SCALE
  5
65
102
{ACAD_REACTORS
330
47
102
}
330
47
100
AcDbScale
 70
     0
300
1-1/2" = 1'-0"
140
1.5
141
12.0
290
     0
  0
SCALE
  5
66
102
{ACAD_REACTORS
330
47
102
}
330
47
100
AcDbScale
 70
     0
300
3" = 1'-0"
140
3.0
141
12.0
290
     0
  0
SCALE
  5
67
102
{ACAD_REACTORS
330
47
102
}
330
47
100
AcDbScale
 70
     0
300
6" = 1'-0"
140
6.0
141
12.0
290
     0
  0
SCALE
  5
68
102
{ACAD_REACTORS
330
47
102
}
330
47
100
AcDbScale
 70
     0
300
1'-0" = 1'-0"
140
12.0
141
12.0
290
     0
  0
ENDSEC
  0
EOF
